<?xml version="1.0" standalone="no"?>
<!DOCTYPE svg PUBLIC "-//W3C//DTD SVG 1.1//EN" "http://www.w3.org/Graphics/SVG/1.1/DTD/svg11.dtd" >
<svg>
<metadata>
Created by FontForge 20110222 at Sun Oct 20 21:13:43 2013
 By Orthosie Webhosting
Created by www-data with FontForge 2.0 (http://fontforge.sf.net)
</metadata>
<defs>
<font id="YoungAgrariansBoldDarkBoldDark" horiz-adv-x="172" >
  <font-face 
    font-family="YoungAgrariansBoldDarkBoldDark"
    font-weight="700"
    font-stretch="normal"
    units-per-em="1000"
    panose-1="2 0 8 3 0 0 0 0 0 0"
    ascent="800"
    descent="-200"
    x-height="435.5"
    cap-height="593.5"
    bbox="28.0588 -128 702.538 653.2"
    underline-thickness="50"
    underline-position="-100"
    unicode-range="U+0020-0094"
  />
<missing-glyph horiz-adv-x="500" 
d="M50 0v533h400v-533h-400zM100 50h300v433h-300v-433z" />
    <glyph glyph-name=".notdef" horiz-adv-x="500" 
d="M50 0v533h400v-533h-400zM100 50h300v433h-300v-433z" />
    <glyph glyph-name=".null" horiz-adv-x="0" 
 />
    <glyph glyph-name="nonmarkingreturn" horiz-adv-x="333" 
 />
    <glyph glyph-name="space" unicode=" " horiz-adv-x="287" 
 />
    <glyph glyph-name="exclam" unicode="!" 
d="M61 188q21 10 44.5 -2t32.5 -38q12 -33 -16 -57.5t-57 -12.5q-23 9 -34 46q-4 15 6 36t24 28zM76 634q0 12 2 16.5t5.5 1.5t6 -7t3.5 -7q2 -10 33 -52q-10 -169 0 -278q4 -51 3 -63.5t-8 -22.5q-10 -14 -32 -15q-14 -1 -20 1.5t-13 12.5t-8.5 37.5t-3.5 136.5
q-2 126 2 164.5t19 46.5q11 6 11 28z" />
    <glyph glyph-name="quotedbl" unicode="&#x22;" horiz-adv-x="258" 
d="M46 556q17 8 35.5 0.5t22.5 -22.5q20 -71 17 -101q-2 -16 -5 -22t-15 -13q-13 -7 -17.5 -7.5t-14.5 4.5q-26 14 -36 89q-4 38 -1.5 52t14.5 20zM150 511q0 9 2.5 17t7.5 16t8 12.5t11 13.5l8 8q12 -7 40 -42v-129q-32 -53 -43 -61q-1 -1 -4 3t-6 10q-5 11 -18 35
q-4 7 -5.5 20t-1.5 24.5t0.5 35t0.5 37.5z" />
    <glyph glyph-name="dollar" unicode="$" horiz-adv-x="438" 
d="M308 244q-6 0 -6 -36q0 -33 6 -34q5 -1 15 16q6 10 6 15.5t-7 18.5q-9 20 -14 20zM189 251q-11 -55 -9 -118h39q0 79 3 118q2 30 1 36.5t-11 10.5q-11 5 -14 -4q-3 -7 -9 -43zM130 458q0 20 -3.5 23.5t-15.5 -5.5q-7 -5 -7 -8.5t6 -16.5q20 -38 20 7zM235 399q0 74 2 83
q0 1 -2 2t-6 2.5t-9 1.5q-16 1 -20 -7t-2 -43v-35q26 -2 37 -4zM408 474q0 -27 -5 -34t-25 -7q-17 0 -30 7.5t-13 17.5q0 9 -10 11q-6 1 -7 -4q-3 -20 -3 -33t2.5 -43t2.5 -40l32 -31q56 -54 56 -106q0 -14 -9 -44.5t-16 -39.5q-3 -4 -38 -39q-32 -32 -32 -50
q0 -26 -21.5 -37.5t-55.5 -7.5l-2 24q-1 13 -2.5 17t-5.5 5.5t-16 1.5q-16 0 -19 -2.5t-1 -14.5q1 -12 -5 -39q-5 -15 -9.5 -20.5t-16.5 -9.5q-20 -7 -36 -1q-12 4 -13.5 11t-1.5 48q0 53 -5 53q-7 0 -32.5 25t-32.5 37q-12 24 -5 58.5t27 68.5q18 -32 25 -34q5 0 8 -14
q8 -33 14 13q1 16 3 41q3 50 0 65.5t-16 16.5q-35 17 -51.5 58t-4.5 85q9 32 14 34q4 1 6 9t6 9q5 0 28 17t31 27q5 7 7.5 26.5t5.5 26.5q6 13 16 10q14 -6 27.5 -19.5t16.5 -24.5q2 -10 7 -13.5t17 -4.5q14 -1 18.5 1.5t8.5 14.5q6 18 33 31q23 11 27 7.5t9 -40.5l4 -32
q36 -14 62 -38t26 -54z" />
    <glyph glyph-name="percent" unicode="%" horiz-adv-x="476" 
d="M397 173q0 22 -13 44q-10 18 -17 22.5t-14 -2t-16 -26.5q-10 -22 -6.5 -33t24.5 -20q25 -10 33.5 -7.5t8.5 22.5zM329 279q28 19 60 -4q4 -3 7 -6l5.5 -5.5t5.5 -7.5t4.5 -8t5.5 -10.5t5.5 -11.5t6 -13.5t7.5 -15.5q17 -35 3 -62t-42.5 -32t-57.5 7q-28 16 -38 26.5
t-17 29.5q-7 21 -7 28.5t8 27.5q9 23 17.5 34t26.5 23zM97 457q0 -17 6 -18q8 0 14 20q3 13 -1 19q-10 15 -16 -2q-3 -7 -3 -19zM119 539q37 0 43.5 -7.5t6.5 -52.5q0 -31 -6 -47t-23 -32q-26 -23 -55 -20t-46 31q-14 24 -7 59.5t30 56.5q9 8 18.5 10t38.5 2zM88 50
q-7 0 -16 17q-13 23 -2 53t87 177q25 49 45 86.5t45 85.5q27 54 36 68.5t22 21.5q25 16 45 -7q10 -10 12.5 -26t-4.5 -23q-23 -25 -215 -417q-6 -12 -24 -24t-31 -12z" />
    <glyph glyph-name="ampersand" unicode="&#x26;" horiz-adv-x="525" 
d="M140 467q0 -30 9.5 -34.5t74.5 -4.5q11 0 31 1q45 1 46 -6q0 -3 -6 -9q-7 -7 -20 -29q-13 -21 -26 -29t-41 -10q-44 -4 -61.5 -18t-30.5 -57q-15 -47 5 -95q8 -20 21.5 -29.5t45.5 -19.5q56 -17 85 -3t40 64q7 35 2 43t-35 8t-40.5 -3.5t-10.5 -14.5q0 -12 -14.5 -25
t-28.5 -13q-21 -1 -31.5 13t-10 33.5t6.5 38.5t14 31q19 27 128 28q104 1 112 12q4 5 -6 20q-12 10 7.5 27t32.5 22q23 7 44 -19q7 -9 10 -32.5t0 -39.5q-4 -17 -25 -38t-46 -31q-18 -8 -21.5 -12t-1.5 -14q8 -27 -9 -74q-11 -33 -18.5 -45t-25.5 -29q-42 -38 -112.5 -38
t-128.5 39q-43 28 -58.5 68t-15.5 110q0 18 5 37t9.5 29.5t16 31.5t14.5 28l-10 35q-9 33 -9 51.5t9 43.5q25 67 78.5 91t120.5 -17q34 -24 42 -35t0 -26q-16 -28 -33 -30t-57 24q-28 19 -52.5 3t-24.5 -52z" />
    <glyph glyph-name="quotesingle" unicode="'" horiz-adv-x="144" 
d="M32 420q8 35 6 124q40 30 52 41q4 4 6 5t3.5 2t2.5 -1.5l2 -5t2 -8.5q14 -66 4 -143q-5 -38 -9 -49.5t-14 -19.5q-25 -18 -44.5 1.5t-10.5 53.5z" />
    <glyph glyph-name="parenleft" unicode="(" horiz-adv-x="288" 
d="M206 514q-2 -5 -8 -8t-7 -9q0 -8 -4 -8q-5 -4 -11.5 -13.5t-13 -22.5t-9.5 -17q-45 -69 -38 -185q3 -57 19 -93t59 -82l30 -33q-2 -2 -6.5 -10.5t-7.5 -12.5t-8 -9.5t-11 -8t-13 -1.5q-14 -1 -22.5 3.5t-28.5 24.5q-31 30 -45.5 54.5t-31.5 74.5q-13 38 -16 57t-3 64
q0 62 14 105q5 18 11.5 33.5t15.5 32.5t14 26t17.5 29t16.5 26q2 7 26 35.5t29 39.5q1 3 9 5.5t10 7.5q3 10 28.5 9t30.5 -11q18 -32 -19 -69q-22 -22 -27 -34z" />
    <glyph glyph-name="parenright" unicode=")" horiz-adv-x="283" 
d="M58 569q0 2 -14.5 18.5t-13.5 18.5q0 4 21 9q39 11 60 2t53 -51q48 -63 68.5 -132t20.5 -170q0 -76 -10.5 -124t-39.5 -106q-15 -30 -35.5 -37.5t-37.5 10.5q-9 9 -11 27t5 25t22 52.5t21 77.5q13 70 2 149.5t-40 129.5q-16 28 -16 32q-1 4 -7 6.5t-8 8.5q-5 14 -33 44
q-7 7 -7 10z" />
    <glyph glyph-name="asterisk" unicode="*" horiz-adv-x="343" 
d="M254 494q12 0 24.5 -11t12.5 -21q1 -13 -19 -37t-38 -34l33 -22q41 -27 45 -40t-20 -40l-21 -24l-27 21q-30 22 -34 17q-2 -2 -3 -9q-2 -11 -17 -23q-34 -26 -52 15q-4 10 -5.5 13.5t-4.5 5.5t-4.5 0.5t-8.5 -5.5t-13 -7q-16 -8 -22 -8.5t-16 4.5q-28 16 -24.5 44.5
t34.5 42.5q15 7 18 11.5t-0.5 7.5t-18.5 13q-12 8 -27.5 27t-15.5 28q0 3 24.5 14.5t31.5 11.5q3 1 10.5 -3t14.5 -8.5t8 -4.5q6 56 28 78q7 7 13 3.5t30 -25.5q11 -11 14 -57q33 22 50 22z" />
    <glyph glyph-name="plus" unicode="+" horiz-adv-x="403" 
d="M180 301q-4 105 23 132q6 0 29 -21q17 -16 20 -24.5t4 -40.5q2 -44 3 -45q3 -3 34 3q47 10 71 -18q10 -12 9.5 -18t-11.5 -21q-8 -10 -23 -16t-43.5 -10.5t-32.5 -5.5v-50q0 -45 -7 -66t-25 -27q-28 -8 -40.5 16t-8.5 52q3 28 -4 70q-20 2 -58 -4t-54 -5
q-13 1 -24.5 14.5t-11.5 25.5q0 35 69 46q17 3 42.5 7t38.5 6z" />
    <glyph glyph-name="comma" unicode="," 
d="M30 -38q0 1 12 39q16 47 17.5 62.5t-7.5 35.5q-11 24 -10.5 35.5t13.5 23.5q38 38 72 -27q22 -46 11 -92.5t-40 -65.5q-5 -3 -22.5 -6.5t-30.5 -5t-15 0.5z" />
    <glyph glyph-name="hyphen" unicode="-" horiz-adv-x="301" 
d="M102 278q74 6 105 4.5t47 -10.5q20 -11 16 -24q-11 -34 -31 -42q-10 -4 -96 -10.5t-100 -4.5q-12 1 -13 27q-1 25 12 41q9 11 19 14t41 5z" />
    <glyph glyph-name="period" unicode="." horiz-adv-x="184" 
d="M30 107q0 19 18 36.5t34 17.5q14 0 42 -15.5t30 -23.5q2 -11 -17 -34q-15 -20 -30.5 -25.5t-38.5 -0.5q-38 9 -38 45z" />
    <glyph glyph-name="slash" unicode="/" horiz-adv-x="281" 
d="M114 103q-1 -11 -19.5 -28.5t-29.5 -10.5q-37 9 -35 48.5t45 151.5q1 2 7.5 21.5t19 55.5t23.5 67q32 94 46 126t22 33q5 0 13 8q11 10 22.5 8t17.5 -16q6 -20 2.5 -39.5t-18.5 -63.5q-7 -20 -39 -105t-50 -143.5t-27 -112.5z" />
    <glyph glyph-name="zero" unicode="0" horiz-adv-x="390" 
d="M244 498q-8 11 -24.5 15t-29.5 -1q-11 -5 -28.5 -26.5t-29.5 -42.5q-6 -12 -10.5 -34.5t-9.5 -62.5l-5 -40q-3 -22 5.5 -69.5t18.5 -65.5q9 -13 34 -26.5t40 -5.5q16 9 35.5 37.5t25.5 54.5q6 24 6 106q2 125 -28 161zM149 586q35 20 79.5 13t72.5 -37q27 -27 48 -125
q12 -58 9 -128q-3 -80 -20.5 -128t-59.5 -90q-43 -44 -112.5 -32.5t-106.5 69.5q-17 27 -23.5 64.5t-5.5 113.5q1 81 7.5 114t30.5 77q35 62 81 89z" />
    <glyph glyph-name="one" unicode="1" horiz-adv-x="177" 
d="M61 105q-1 20 0 115q1 256 -7 256q-12 7 -21 21t1 27q14 38 46 55q20 11 31 9.5t21 -17.5q9 -14 11.5 -53t2.5 -192v-227l-12 -11q-14 -11 -30.5 -10t-28.5 14z" />
    <glyph glyph-name="two" unicode="2" horiz-adv-x="457" 
d="M30 92q0 15 14 43q20 40 148 157q41 37 56 65.5t15 68.5q0 48 -29 76q-16 15 -41 15.5t-45 -13.5q-13 -9 -28.5 -35.5t-22.5 -51.5q-2 -8 -4.5 -11.5t-6 -2.5t-8.5 6t-12 15q-17 24 -20.5 35t-0.5 34q-2 23 32 55.5t59 41.5q56 22 116 -4t80 -79q10 -30 8 -91
q-2 -64 -18 -97q-12 -24 -30.5 -44t-107.5 -103l-32 -30h85q88 -1 121.5 -7.5t52.5 -26.5q15 -15 16.5 -19t-6.5 -10q-20 -16 -49.5 -19t-149.5 -4q-160 -2 -163 -1q-9 1 -19 13.5t-10 23.5z" />
    <glyph glyph-name="three" unicode="3" horiz-adv-x="428" 
d="M193 28q-46 0 -79 16q-112 50 -73 167q2 3 16.5 -7t29.5 -23.5t17 -19.5q6 -16 25 -30q13 -10 23.5 -13t38.5 -4q29 -1 40.5 1.5t27.5 13.5q22 13 40 42q11 17 13.5 28.5t2.5 38.5q0 40 -12 61q-16 28 -29.5 36.5t-38.5 8.5q-29 0 -41 15q-26 34 2 58q31 27 41 47t4 40
q-5 14 -34 21t-47 -3q-9 -5 -25 -30q-13 -23 -30.5 -31t-33.5 1q-15 9 -16 34q-3 44 28 74t85 36q123 12 150 -79q8 -27 8 -39.5t-7 -41.5l-9 -30l28 -30q61 -54 60 -145.5t-65 -152.5q-63 -60 -140 -60z" />
    <glyph glyph-name="four" unicode="4" horiz-adv-x="347" 
d="M270 619q7 -6 13 -9t8.5 -3.5t6.5 -4t10 -11.5q8 -10 8.5 -29.5t-4.5 -110.5q-10 -178 -12 -355q-25 -27 -48 -31q-13 -2 -17.5 1t-12.5 21q-12 27 -8 54q2 22 -4 138q-8 -1 -23.5 -2.5t-23 -1.5h-19.5t-23 2.5t-23 6.5q-42 15 -48 24q-10 12 -16 129q-7 116 3 135
q5 11 11 14t19 3q26 0 32.5 -17t9.5 -98q4 -95 9 -102q5 -9 48 -8q47 1 54.5 7t7.5 44q0 31 6 109t9 97q3 16 27 -2z" />
    <glyph glyph-name="five" unicode="5" horiz-adv-x="425" 
d="M82 178q0 -3 8.5 -8.5t8.5 -9.5q0 -8 14 -18q15 -10 60 -10q49 1 75 15.5t51 55.5q9 14 11 26.5t2 45.5q-1 51 -11.5 76.5t-39.5 45.5q-16 11 -45.5 20.5t-59 7.5t-35.5 -23q-3 -11 -8.5 -12.5t-22.5 1.5q-32 3 -38.5 26.5t5.5 96.5q8 56 8 68q0 11 3 14.5t13 5.5
q12 2 57.5 2t101.5 -0.5t76 -0.5q41 -41 17 -67q-12 -13 -26.5 -15.5t-65.5 2.5q-104 9 -104 -9q0 -7 49 -10q42 -2 70.5 -13t63.5 -37q73 -55 75 -185q1 -33 -2 -47t-16 -41q-19 -40 -49 -68q-34 -30 -38 -30q-6 0 -12 -6q-29 -26 -108.5 -27.5t-104.5 28.5q0 5 -5 5
q-11 6 -16.5 11.5t-10 17.5t-3.5 30q5 48 19 76q31 -28 33 -40z" />
    <glyph glyph-name="six" unicode="6" horiz-adv-x="431" 
d="M114 231q-3 -42 43 -84t89 -41q12 0 29.5 12t22.5 23q6 14 10 17q6 4 8.5 34.5t-1.5 48.5q-8 38 -48.5 56t-89.5 1q-20 -7 -43 -27.5t-20 -39.5zM244 28q-37 0 -62.5 9t-62.5 34q-59 41 -80 119.5t7 151.5q26 65 42 90q15 24 15 30q0 5 5 5q4 0 13 15q14 22 66 69.5
t80 63.5q7 4 30 3t27 -5q2 -2 -1 -25q-3 -18 -13.5 -30t-73.5 -72q-51 -48 -72 -90q-11 -22 3 -17q109 41 201 -56q33 -36 33 -103t-34 -121q-25 -42 -51 -56.5t-72 -14.5z" />
    <glyph glyph-name="seven" unicode="7" horiz-adv-x="405" 
d="M185 606q113 3 141.5 1.5t38.5 -11.5q12 -13 9.5 -34t-21.5 -65q-72 -168 -96 -244q-8 -23 -22 -61t-22 -64q-16 -49 -43 -59t-46 26q-6 11 5 46q79 227 116 312q24 57 25 61q1 8 -4 9q-10 3 -126 4q-98 1 -107 7q-7 5 5 29l2 3q13 26 33.5 31.5t111.5 8.5z" />
    <glyph glyph-name="eight" unicode="8" horiz-adv-x="420" 
d="M308 243q0 32 -24.5 67.5t-67.5 63.5q-18 12 -23 13t-16 -5q-28 -16 -48.5 -57t-20.5 -81q1 -65 42 -101t87 -12q29 15 50 48t21 64zM230 532q0 7 -23 6q-20 -1 -40 -7.5t-20 -13.5q0 -6 12 -17t19 -11q13 0 32.5 16t19.5 27zM30 242q0 90 58 166q15 20 16.5 25t-6.5 15
q-35 48 -35 76q0 30 22.5 54.5t58.5 32.5q21 6 76.5 2t63.5 -15q36 -25 33.5 -68t-41.5 -74q-16 -12 -7 -15q11 -5 47.5 -44.5t47.5 -58.5q33 -64 21 -131t-57 -108q-87 -81 -176 -52q-122 41 -122 195z" />
    <glyph glyph-name="nine" unicode="9" horiz-adv-x="400" 
d="M300 404q0 27 -10.5 65.5t-19.5 44.5q-10 6 -35 9t-41 0q-24 -3 -58 -36q-24 -23 -26 -59t17 -66t51 -37q19 -4 44.5 0.5t39.5 15.5q38 28 38 63zM350 540q0 -6 10 -24q11 -21 10.5 -105t-11.5 -111q-21 -53 -39 -80q-19 -30 -70.5 -86t-80.5 -76q-6 -4 -15 -12t-14 -12
t-11 -5.5t-12 4t-13 19.5q-17 35 -5 64q7 17 23 17q11 0 28 14.5t68 69.5q22 22 -12 22q-140 0 -172 151q-13 62 19 118t97 88q21 10 73 9.5t74 -10.5q16 -7 34.5 -26.5t18.5 -28.5z" />
    <glyph glyph-name="colon" unicode=":" 
d="M109 199q0 -3 17 -28q15 -21 15.5 -31t-12.5 -29q-27 -38 -67 -19q-30 14 -30 49q0 8 10.5 28t20.5 30q4 4 20 7q26 5 26 -7zM113 408q16 -12 15.5 -39.5t-16.5 -38.5q-21 -16 -44.5 -11t-35.5 29q-6 12 2.5 34.5t21.5 31.5q27 18 57 -6z" />
    <glyph glyph-name="semicolon" unicode=";" horiz-adv-x="182" 
d="M149 77q0 -23 -4 -37t-20 -43q-25 -49 -49.5 -60.5t-39.5 19.5q-8 6 -6 17.5t5 19t9 17.5t7 12q7 9 14 32q5 17 4.5 22t-10.5 13q-35 28 -9 53q32 33 65.5 12.5t33.5 -77.5zM65 389q31 21 62.5 -0.5t23.5 -54.5q-7 -26 -40.5 -34t-53.5 13q-16 10 -14 41t22 35z" />
    <glyph glyph-name="less" unicode="&#x3c;" horiz-adv-x="348" 
d="M141 278q4 1 27.5 -16.5t24.5 -17.5q10 -4 28 -17.5t33 -22.5q43 -28 54 -51l7.5 -16.5t2.5 -9t-2 -4.5t-7 -1q-8 0 -20 -8q-15 -12 -35 -5.5t-68 42.5q-28 20 -53.5 38.5t-56.5 41.5q-32 24 -38 31.5t-8 25.5q-2 17 6.5 27t27 20t24.5 15t25 13t23 15q0 5 7 5
q5 2 27 16.5t42.5 23t35.5 4.5q22 -8 26 -26.5t-13 -34.5q-7 -7 -30.5 -21.5t-28.5 -18.5q-6 -8 -41 -25q-19 -8 -23 -19q-1 -4 3 -4z" />
    <glyph glyph-name="equal" unicode="=" horiz-adv-x="406" 
d="M47 235q8 7 31 8t120 0q113 -2 140 -7t35 -25q7 -16 -0.5 -33t-21.5 -21q-13 -4 -143 0q-130 2 -149 12q-26 12 -29 30.5t17 35.5zM145 368q38 0 93 2q81 1 96 -5q8 -4 24 -18q5 -5 8 -7q-20 -22 -41 -44q-42 -6 -92.5 -10.5t-103.5 -4t-69 10.5q-21 12 -25 30t11 32
q9 8 25.5 10.5t73.5 3.5z" />
    <glyph glyph-name="greater" unicode="&#x3e;" horiz-adv-x="436" 
d="M228 242q5 3 12 6t10 4.5l7 3.5t4 3.5v3.5t-3 4t-7.5 4t-11.5 6q-38 18 -98.5 57.5t-64.5 49.5q-7 20 8 38.5t37 12.5q37 -10 82 -41t69 -41q117 -54 118 -62q0 -5 8 -13q17 -13 1.5 -35.5t-51.5 -36.5q-87 -35 -169 -82q-6 -3 -29 -21q-107 -90 -119 -27q-4 20 6.5 34.5
t52.5 46.5q55 42 138 85z" />
    <glyph glyph-name="question" unicode="?" horiz-adv-x="359" 
d="M175 183q10 0 29.5 -29.5t19.5 -45.5q0 -29 -30 -44.5t-58 0.5q-17 11 -21 34q-5 28 1 42.5t26 27.5q24 15 33 15zM207 254q0 -8 -11 -20t-19 -12q-13 0 -27.5 10t-16.5 21q-9 34 14 74q7 13 25.5 32t24.5 19t24.5 29.5t19.5 40.5q2 24 -2 35t-18 24q-38 37 -72 19.5
t-44 -77.5q-6 -36 -42 -39q-12 -1 -16.5 1t-9.5 11q-7 14 -6.5 41t8.5 50q20 57 76 84q41 20 84 12.5t79 -41.5q97 -89 12 -207q-23 -32 -52 -55q-10 -8 -20.5 -25.5t-10.5 -26.5z" />
    <glyph glyph-name="at" unicode="@" horiz-adv-x="565" 
d="M208 316q0 -10 4.5 -12.5t25.5 -7.5q35 -6 39 -4q13 6 13 61q0 33 -41 19q-13 -4 -27 -23.5t-14 -32.5zM239 211q-50 0 -62 1.5t-23 11.5q-13 10 -21.5 34.5t-8.5 48.5q1 36 26.5 74t63.5 58q24 12 34.5 14.5t33.5 0.5q64 -6 91 -22q6 -5 6.5 -31.5t-5.5 -42.5
q-6 -18 -6.5 -50t6.5 -44q16 -32 57 9l22 24q-2 58 -11.5 93t-35.5 57q-36 29 -85 37.5t-97 -12.5q-51 -25 -87.5 -87.5t-23.5 -124.5q16 -83 73 -101q7 -2 26 -9.5t35 -10.5t41 -3q33 0 44 2.5t22 10.5q31 25 62 0q22 -17 10.5 -39t-53.5 -41q-26 -13 -86 -13
q-71 0 -137 34t-92 82q-8 16 -18 58.5t-10 63.5q0 33 19.5 89t31.5 56q5 0 5 8t37 47q49 51 118 70q55 16 117 -1t106 -60q45 -43 62 -109q16 -58 6.5 -99t-46.5 -79q-30 -30 -57 -37q-73 -19 -108 19q-9 9 -21 11t-61 2z" />
    <glyph glyph-name="A" unicode="A" horiz-adv-x="511" 
d="M271 436q-2 -9 -20 -46t-20 -47q66 3 87 8q2 4 -7 30q-22 70 -31 70q-1 0 -3 -2q-6 -6 -6 -13zM237 562q-1 3 16.5 25.5t20.5 23.5q3 0 16.5 -8.5t19.5 -14.5q9 -8 29 -49.5t23 -59.5q2 -10 7.5 -18t6.5 -17q19 -55 50.5 -165t47.5 -158q10 -32 2 -47
q-13 -23 -38.5 -21.5t-35.5 26.5q-31 76 -42 145q-12 49 -32 40q-4 -1 -38.5 -3.5t-66 -5.5t-34.5 -7q-58 -127 -74 -179q0 -15 -28.5 -22t-41.5 4q-17 13 -15.5 32t21.5 64q33 71 92 201.5t82 180.5q12 24 12 33z" />
    <glyph glyph-name="B" unicode="B" horiz-adv-x="427" 
d="M306 258q-21 49 -65.5 60.5t-124.5 3.5q0 -9 1 -33.5t1.5 -45.5t2 -44t3.5 -38.5t5 -19.5q9 -11 62 -6t90 19q22 10 31 32q9 23 8 32t-14 40zM117 518v-114l42 3q27 2 37.5 5.5t20.5 12.5q20 19 21 45.5t-19 34.5q-6 3 -102 13zM314 372q8 0 35 -31.5t36 -51.5
q11 -24 12 -78q1 -37 -1.5 -49t-12.5 -28q-28 -42 -82 -61q-64 -23 -146 -23t-99 24q-11 14 -20 147t-5 215q5 105 9 130.5t16 29.5q16 5 86 2t86 -9q42 -15 60 -33q57 -57 21 -140q-19 -44 5 -44z" />
    <glyph glyph-name="C" unicode="C" horiz-adv-x="491" 
d="M407 444q-8 0 -49 23q-83 46 -139 16q-18 -10 -40.5 -34t-27.5 -40q-2 -7 -10 -29.5t-11 -33.5t-9.5 -36t-5.5 -35.5t1 -32.5q7 -38 15 -49q3 -4 9 -10q22 -22 28 -22q7 0 7 -4q0 -5 22 -16t44 -17q76 -21 142 27q59 44 77 -8q7 -18 -17 -46.5t-60 -44.5
q-18 -9 -34.5 -11t-66.5 -2q-35 0 -53 1.5t-24 3.5t-18 10.5t-24 14.5q-6 3 -33.5 21t-36.5 21q-7 0 -26 27.5t-26 47.5q-11 34 -11 80t11 78q7 22 10 35t7.5 24.5t20.5 47.5q9 19 34 50t33 32q6 0 6 5q0 6 67 36q25 11 64.5 6t78.5 -24q3 -2 16 -8t20 -9q48 -21 42 -56
q-3 -13 -14 -26t-19 -13z" />
    <glyph glyph-name="D" unicode="D" horiz-adv-x="469" 
d="M142 506h-8q-19 1 -21 -9t2 -69q1 -20 2 -31q15 -230 21 -251q14 -13 27 -13q41 0 97 24q22 10 45 32t32 42q21 46 5.5 118t-53.5 107q-53 50 -149 50zM89 611q0 -17 84 -24q179 -12 237 -165q10 -28 19.5 -68.5t9.5 -56.5q0 -32 -17.5 -84t-27.5 -52q-5 0 -5 -5
q0 -11 -41.5 -42t-69.5 -41q-95 -36 -173 -16h-1q-30 8 -37 20q-9 15 -17 115v4q-1 5 -1 8q-19 247 -19 319.5t19 86.5q5 4 15 5.5t17.5 0.5t7.5 -5z" />
    <glyph glyph-name="E" unicode="E" horiz-adv-x="440" 
d="M32 108q7 28 7 492h116q196 0 218 -19q11 -10 10.5 -28t-11.5 -30q-8 -9 -24 -10t-112 -1h-126v-46q4 -83 19 -83q6 3 80 5q69 2 101.5 -4t45.5 -23q23 -30 -7 -52q-10 -7 -20 -8t-47 4q-51 7 -98 1q-45 -6 -56 -12.5t-11 -26.5q0 -54 -7 -138q254 -4 275 -11
q31 -11 24 -46q-5 -23 -33 -27t-162 -1l-160 3q-2 3 -8.5 13t-8.5 14t-5.5 15.5t0.5 18.5z" />
    <glyph glyph-name="F" unicode="F" horiz-adv-x="396" 
d="M344 500q-3 0 -41 9q-29 6 -104 7t-79 -5q-1 -4 4 -118l93 4q79 3 105.5 -1t30.5 -20q8 -31 -9 -48q-9 -8 -17 -9.5t-33 0.5q-42 4 -173 -10l2 -109q3 -56 0.5 -84.5t-7 -35.5t-21.5 -16q-10 -5 -15 -4t-15 11l-14 15q-11 376 -18 430q-5 33 -1.5 49.5t17.5 25.5
q11 7 33.5 8t111.5 -1q127 -2 150 -13q13 -6 17 -11.5t5 -17.5q1 -13 -7 -34.5t-15 -21.5z" />
    <glyph glyph-name="G" unicode="G" horiz-adv-x="548" 
d="M284 525q-32 0 -44 -2t-26 -12q-108 -68 -108 -234q0 -44 31 -89.5t75 -65.5q28 -13 76 -10.5t81 18.5q35 17 50 36.5t18 51.5q4 46 0 85q-46 2 -94 -5q-15 -3 -24.5 0.5t-35.5 19.5q-38 24 -38 29t39.5 17t78.5 20q5 4 32.5 2t37.5 -3t38 -5.5t34 -5.5q13 -36 13 -111
q0 -69 -9 -99t-38 -59q-77 -75 -183 -75q-102 0 -172.5 58t-82.5 152q-7 58 3 120t33 103q40 72 73 101t87 41q65 14 127 -1t98 -53q21 -22 21 -44q-1 -32 -25 -38.5t-49 19.5q-38 39 -117 39z" />
    <glyph glyph-name="H" unicode="H" horiz-adv-x="510" 
d="M422 606q2 0 14.5 -14t21.5 -26t9 -174q0 -155 6 -225q7 -73 6.5 -95.5t-9.5 -32.5q-10 -11 -27.5 -11.5t-27.5 10.5q-17 18 -25 144q-5 73 -9 77q-19 5 -259 9v-101q0 -71 -1.5 -87t-9.5 -24q-10 -10 -28.5 -11t-27.5 9q-10 12 -14 57t-8 223q-5 185 -1.5 220t25.5 43
q14 5 28.5 -2t21.5 -20q9 -18 13 -222q19 0 84.5 -0.5t116 0t60.5 3.5q4 -3 5 39q0 23 -1 82q-1 78 1 80q1 9 15 27t21 22z" />
    <glyph glyph-name="I" unicode="I" horiz-adv-x="254" 
d="M158 517q-1 -38 1.5 -104t6.5 -143.5t5 -102.5q2 -43 7 -49q2 -2 10 -6q36 -17 36 -44q0 -25 -16 -32t-69 -8q-49 0 -66.5 6t-22.5 25q-12 39 36 58v135q-2 244 -18 254q-7 5 -22 5q-11 0 -13.5 4.5t-2.5 26.5q0 26 8.5 34t44.5 16q31 9 68.5 1.5t49.5 -32.5
q11 -22 8.5 -27t-26.5 -11z" />
    <glyph glyph-name="J" unicode="J" horiz-adv-x="368" 
d="M332 539q-5 -1 -17 -9.5t-20 -10.5q-22 -5 -25 -31.5t-1 -181.5q3 -140 2 -169.5t-10 -48.5q-18 -39 -62 -59t-85 -8q-40 12 -65 52.5t-17 79.5q15 69 25 69q4 0 14.5 -15.5t12.5 -16.5q4 -1 15 -26.5t11 -31.5q0 -10 14.5 -21t27.5 -11q20 0 25 10q9 19 7 177v29
q-1 197 -8 200q-10 3 -18.5 15t-8.5 23q1 28 31 39q17 6 60.5 6.5t54.5 -5.5q28 -15 41 -40q7 -15 -4 -15z" />
    <glyph glyph-name="K" unicode="K" horiz-adv-x="460" 
d="M122 417q5 0 49.5 36t46.5 42q2 5 6 5q6 0 22 16q60 56 78.5 68t39.5 8q13 -3 23 -14.5t10 -23.5q0 -9 -24 -33q-33 -31 -77 -68q-26 -21 -26.5 -27t15.5 -37q11 -22 61 -119t62 -120q29 -56 16 -91q-5 -15 -20 -15q-22 0 -38 15.5t-34 52.5q-5 10 -29.5 61t-39.5 80
q-5 11 -14 29q-35 71 -45 78t-30 -13q-2 -2 -7 -6l-11 -11l-43 -41v-110q0 -74 -1.5 -94t-8.5 -29q-11 -14 -29 -13.5t-31 15.5t-13 52q0 54 6 248t8 208q4 38 78 22v-40q-4 -127 -2 -130q1 -1 2 -1z" />
    <glyph glyph-name="L" unicode="L" horiz-adv-x="436" 
d="M43 576q2 7 30 17t42 12q2 1 2.5 -63.5t-1.5 -168.5q-4 -233 4 -237q10 -5 136 -5q103 -1 122.5 -5t26.5 -26v-1q3 -8 -2 -17t-15 -20t-12 -14q-126 -7 -324 3q-3 6 -9 14.5t-7 11.5t-4 9.5t-2.5 14t-0.5 18t0 30t1 41t1 59.5t1 79q1 234 11 248z" />
    <glyph glyph-name="M" unicode="M" horiz-adv-x="606" 
d="M528 11q-2 0 -16 30q-10 21 -12.5 48t-5.5 139l-4 158q-42 -83 -47 -102q-2 -9 -11.5 -27.5t-16.5 -33.5t-6 -17q-2 -6 -24.5 -69t-24.5 -73q-10 -42 -26 -48q-6 -2 -9 6q-4 7 -30 37.5t-33 43.5q-3 5 -9.5 18.5t-15.5 30.5t-19.5 38t-21 43t-21.5 43t-21 39.5t-18 32.5
t-13.5 22t-7.5 7q-3 1 -4.5 -23t-1.5 -59.5t1 -73t4 -68.5t6 -40q8 -22 -4.5 -42.5t-33.5 -20.5t-30.5 11.5t-14.5 42.5q-14 84 -3 343q4 86 6 103t11 26q13 13 24 13t31.5 -21.5t31.5 -44.5q29 -65 86.5 -169.5t79.5 -156.5q1 -3 2.5 -5.5t2.5 -4t2.5 -1.5t2.5 1
q13 25 65.5 148t71.5 161q25 49 41 69.5t37 25.5q25 6 32 -7q11 -20 13 -175q1 -19 1 -53q2 -207 1 -239t-7 -45q-8 -15 -24 -38t-17 -23z" />
    <glyph glyph-name="N" unicode="N" horiz-adv-x="534" 
d="M86 59q-17 -14 -19.5 -14t-19.5 14l-16 15v494q20 23 39.5 21t51.5 -37q30 -32 63 -70t54 -64t59 -73.5t56 -69.5q70 -85 78 -86q3 0 -1 10q-3 8 -8 120t-6 179q0 39 2 49.5t12 21.5q27 29 55 0q9 -9 11 -35.5t5 -192.5q3 -173 1 -219.5t-15 -59.5q-27 -30 -78 17
q-14 13 -36 38.5t-47.5 56.5t-26.5 32q-52 60 -143 175q-37 46 -43 46q-7 -75 -11 -353z" />
    <glyph glyph-name="O" unicode="O" horiz-adv-x="587" 
d="M482 268q0 33 -19 79t-46 81q-25 31 -36 39.5t-46 25.5q-21 10 -52 13.5t-52 -2.5q-31 -8 -68.5 -64.5t-47.5 -110.5q-13 -66 13 -123.5t81 -84.5q26 -13 84 -15t90 8q45 13 72 55.5t27 98.5zM347 583q11 -5 18.5 -7.5l10.5 -3.5t9.5 -4.5t17.5 -12.5q154 -114 154 -288
q0 -55 -6.5 -83.5t-27.5 -61.5q-9 -15 -24 -32.5t-19 -17.5t-29 -18q-45 -31 -147 -32q-53 -1 -85.5 7.5t-67.5 31.5q-32 21 -47 35t-32 39q-24 35 -33 67t-9 82q1 151 101 248q51 49 100 62q21 5 58 2t58 -13z" />
    <glyph glyph-name="P" unicode="P" horiz-adv-x="433" 
d="M256 510q-12 4 -150 11l4 -203l42 -4q89 -7 129.5 15t40.5 78q0 38 -17.5 65.5t-48.5 37.5zM328 261q-6 0 -13 -7q-30 -31 -201 -26v-71q0 -62 -3 -78.5t-17 -25.5q-15 -10 -33 -3t-24 24q-5 18 -7 255q-1 170 0.5 206t8.5 43q9 8 17 12.5t21.5 6.5t22.5 2t35 -0.5
t43 -0.5q63 0 82.5 -2.5t35.5 -11.5q61 -34 88 -87q16 -31 18 -87q2 -40 0 -51.5t-15 -35.5q-12 -22 -31 -42t-28 -20z" />
    <glyph glyph-name="Q" unicode="Q" horiz-adv-x="559" 
d="M209 489q-12 0 -48 -32.5t-43 -49.5q-16 -38 -0.5 -109.5t48.5 -111.5q14 -17 38.5 -40.5t28.5 -23.5q5 0 5 19q0 12 3 16.5t15 8.5q15 6 29 6q13 0 30.5 -13t24.5 -28q2 -3 4 -7t2.5 -5.5t1.5 -3.5t1.5 -2.5t2 -1t2.5 0t3.5 1t4.5 1.5t6.5 2.5t8.5 2.5q22 6 34.5 22.5
t25.5 54.5q33 98 -14 198q-9 19 -28.5 48.5t-23.5 29.5q-6 5 -31.5 26.5t-37.5 28.5q-7 -2 -27 -9t-35 -12.5t-20 -9.5q-7 -7 -11 -7zM141 544q1 0 27.5 17.5t28.5 16.5q6 2 20 10.5t28 12.5q70 21 102 -2q81 -59 119 -118q38 -58 54 -133t3 -137q-15 -74 -54 -122.5
t-89 -55.5q-47 -6 -2 -22q7 -2 17.5 -4t13 -3.5t2.5 -7.5t-7 -19q-27 -49 -54 -49q-12 0 -31.5 12t-19.5 19q0 5 -8 9q-7 3 -14 25t-15 29t-47 22q-59 22 -106.5 83t-68.5 127q-10 32 -10 93q0 27 1.5 43t3.5 23.5t10 25.5q9 22 46 60.5t50 44.5z" />
    <glyph glyph-name="R" unicode="R" horiz-adv-x="513" 
d="M116 525q-4 -11 -4 -175q61 -5 126.5 11.5t81.5 41.5q15 23 3.5 55.5t-40.5 50.5q-16 10 -31 13t-62 4q-69 4 -74 -1zM351 311q10 -26 61.5 -108.5t61.5 -112.5l9 -23l-21 -11q-20 -10 -28 -10t-22 10q-12 8 -25 28.5t-52 90.5q-26 47 -44 74q-17 25 -31.5 27.5
t-81.5 -8.5l-59 -9v-96q1 -66 -0.5 -81.5t-9.5 -22.5q-11 -10 -20.5 -12.5t-18.5 2.5t-14 9.5t-13 13.5q-1 34 -7.5 168t-6 219t10.5 132q3 3 33 12q28 8 104.5 6t110.5 -11q60 -18 90 -70q66 -114 -3 -186q-24 -26 -24 -31z" />
    <glyph glyph-name="S" unicode="S" horiz-adv-x="472" 
d="M442 211q0 -35 -3 -48.5t-14 -36.5q-10 -20 -20.5 -31.5t-36.5 -28.5q-65 -44 -117.5 -48t-122.5 31q-45 23 -75.5 65t-19.5 67q10 24 37.5 22t37.5 -27q11 -27 45 -44q60 -31 94 -29t82 38q42 32 35.5 78t-56.5 68q-24 10 -81 28t-65 18q-9 0 -33 13.5t-34 24.5
q-23 23 -23 69q0 45 40 89.5t81 53.5q34 8 77.5 -9.5t83.5 -54.5q54 -48 35 -83q-9 -17 -32.5 -17t-37.5 17q-7 8 -39 30.5t-43 27.5q-15 5 -34 -1t-32 -22q-29 -33 -3 -50q15 -8 65 -24q90 -26 113.5 -36t48.5 -32q28 -25 37.5 -48.5t9.5 -69.5z" />
    <glyph glyph-name="T" unicode="T" horiz-adv-x="535" 
d="M229 584q51 3 129.5 8t104.5 7q28 1 38.5 -26.5t-11.5 -44.5q-12 -9 -32 -12.5t-79 -7.5t-66 -8q-3 2 -3.5 -37t1.5 -96t4 -114.5t4 -98t3 -41.5q2 -28 0.5 -35.5t-12.5 -20.5q-13 -16 -24 -17t-26 12q-10 8 -12 17t-8 56q-1 6 -3 103.5t-6.5 184.5t-11.5 85q-7 3 -70 -4
q-62 -7 -79 -5.5t-28 14.5q-22 25 0 49q12 14 47.5 20t139.5 12z" />
    <glyph glyph-name="U" unicode="U" horiz-adv-x="487" 
d="M30 429v144l14 13q26 27 57 1q10 -9 12.5 -18t4.5 -42q2 -44 -4 -99q-4 -43 2.5 -136t14.5 -117q12 -34 66.5 -56t102.5 0q45 26 57 57q18 49 20 260q1 71 2.5 91t8.5 30q8 11 13 13t20 0q23 -4 25 -6q15 -75 7 -230q-9 -170 -31 -211q-10 -21 -35 -44.5t-49 -34.5
q-18 -9 -33 -11t-56 -2q-43 0 -57 2.5t-38 15.5q-64 32 -92 86q-32 63 -32 294z" />
    <glyph glyph-name="V" unicode="V" horiz-adv-x="603" 
d="M573 557q2 -4 -37.5 -87t-39.5 -84q-3 -7 -53.5 -115.5t-64.5 -156.5q-43 -142 -113 -12q-12 22 -54.5 106t-80.5 158t-49 90q-2 4 -9 16t-13.5 22t-13.5 17q-21 42 -10 69q2 6 5 13.5t2.5 9t3 2t5 -1t10.5 -7.5q12 -9 26 -16q39 -21 149 -239q74 -147 76 -147
q3 0 24 41.5t21 47.5q0 14 73 159t84 153t35 -7.5t24 -30.5z" />
    <glyph glyph-name="W" unicode="W" horiz-adv-x="732" 
d="M192 88q0 11 -14.5 50.5t-34 87.5t-25.5 66q-7 22 -23.5 66t-28.5 78.5t-14 43.5q-1 7 -11.5 31.5t-10 39.5t18.5 24q28 13 42 -2.5t42 -89.5q7 -19 30 -75.5t29 -74.5q35 -100 41 -98q5 1 12 25.5t15.5 62.5t10.5 46q1 5 4.5 21.5t7 32t6.5 27.5q20 100 28.5 116.5
t39.5 16.5q14 0 18.5 -2.5t8.5 -14.5q9 -26 36 -107t51 -149.5t38 -100.5q4 -6 9 8q22 58 101 299q9 26 15 37t20 20q17 11 22.5 13t10 -3t10.5 -24q6 -18 5.5 -30t-9.5 -45q-14 -49 -51.5 -148t-56.5 -164q-6 -18 -15.5 -46t-13.5 -43q-4 -17 -46 -62q-4 4 -13 12t-10.5 9
t-7.5 8t-6.5 8.5t-5 10t-5.5 13t-6.5 18t-8.5 24.5t-10 32t-14 41q-57 170 -65 176q-3 3 -6 -6q-1 -4 -3 -16q-10 -60 -39.5 -164.5t-45.5 -144.5q-10 -10 -41 9.5t-31 36.5z" />
    <glyph glyph-name="X" unicode="X" horiz-adv-x="538" 
d="M508 564q0 -11 -8 -26l-8 -14q-11 -15 -78 -82.5t-75 -76.5l-32 -37q18 -44 50.5 -95.5t60.5 -82.5q7 -7 18 -20t13 -15q13 -13 1 -32.5t-35 -24.5q-12 -2 -19.5 1.5t-25.5 20.5q-20 19 -46.5 54.5t-26.5 43.5q-1 3 -6.5 6t-7.5 10q-2 9 -11 20.5t-12 16.5q-6 11 -12 11
q-13 -9 -49.5 -53.5t-45.5 -52.5q-28 -26 -28 -34q0 -6 -19 -24.5t-32 -25.5q-30 -15 -41 22q-3 12 -3.5 21.5t3 18t6.5 13t12 14.5t13 15q16 21 29 36q71 84 87.5 107t14.5 32q-5 17 -31 55t-54 69q-12 13 -17 22t-17 21q-14 15 -24 34q-7 12 -6 16.5t11 17.5
q21 25 46.5 12t71.5 -72q9 -12 21 -26t21 -25.5t18 -27.5q15 -26 19 -26.5t24 20.5l32 32q31 32 62.5 64t61.5 61.5t35 32.5q2 0 21 -14q18 -14 18 -33z" />
    <glyph glyph-name="Y" unicode="Y" horiz-adv-x="609" 
d="M560 606q7 0 13 -16.5t6 -35.5t-12 -32.5t-74 -68.5q-48 -42 -92 -88.5t-51 -61.5q-3 1 -5.5 -23t-4.5 -59t-3.5 -70.5t-3 -62t-2.5 -29.5q-4 -8 -23 -12t-28 1q-14 9 -18.5 33.5t-4.5 100.5q0 102 -8 117q-1 5 -109 118t-109 118q-3 8 1 29q2 14 10.5 18t32.5 2
q10 -1 37.5 -22t47.5 -44q26 -29 82 -84t58 -53q183 181 233 212q22 13 27 13z" />
    <glyph glyph-name="Z" unicode="Z" horiz-adv-x="557" 
d="M348 131q132 0 155.5 -4.5t23.5 -29.5q0 -16 -10 -28.5t-25 -15.5q-11 -3 -209 -5q-145 -2 -172 -0.5t-37 10.5q-29 26 3 74q16 23 16 29q0 3 44 51q38 40 49 53.5t72 95.5q39 53 66.5 87.5t49.5 62.5q8 5 -46 5q-44 0 -166 -4q-60 -2 -71 -2q-3 3 -20.5 17t-29 25
t-11.5 16q4 6 39 14.5t66 11.5q55 5 192 5q103 1 129.5 -0.5t34.5 -8.5q23 -20 14.5 -44t-60.5 -83q-102 -117 -135 -169q-40 -60 -118 -145q-11 -11 -7 -15q3 -3 163 -3z" />
    <glyph glyph-name="grave" unicode="`" horiz-adv-x="236" 
d="M206 387q-3 -4 -66 -4q-103 90 -108 99q-7 19 12 42q22 25 66 -11q56 -47 71 -65.5t25 -60.5z" />
    <glyph glyph-name="a" unicode="a" horiz-adv-x="365" 
d="M253 182q0 16 -8 17t-45 -10q-53 -15 -73 -38q-22 -25 -4 -31q32 -12 102 23q18 9 23 15.5t5 23.5zM199 274q34 8 32 24q-2 17 -35 26l-12 2q-16 2 -22.5 0t-16.5 -13q-25 -28 -33.5 -34.5t-19.5 -6.5q-15 0 -24 12.5t-9 33.5q0 27 23 51.5t60 36.5q17 6 51 2.5t53 -13.5
q54 -28 73.5 -82.5t14.5 -165.5q-3 -85 -15 -100q-10 -13 -28 -14t-31 11l-12 12l-33 -12q-61 -20 -114 -4.5t-67 58.5q-8 24 -0.5 55t26.5 52q40 46 139 69z" />
    <glyph glyph-name="b" unicode="b" horiz-adv-x="388" 
d="M118 188v-50q26 -14 62.5 -20.5t60.5 6.5q23 19 30.5 53t-7.5 57q-23 34 -74 46q-9 2 -28.5 -6.5t-29.5 -20.5q-9 -10 -11.5 -21t-2.5 -44zM107 457q0 -105 4 -109q3 -3 16 6q16 11 64.5 9t71.5 -14q27 -14 52.5 -43.5t35.5 -60.5q16 -45 -1 -97.5t-57 -84.5
q-61 -50 -153 -24q-26 8 -37 -2q-23 -21 -51 1q-9 6 -11.5 17t-5.5 57q-5 88 -5 257q-1 129 1 163t9 41q10 10 28 9.5t28 -10.5q8 -8 9.5 -24t1.5 -91z" />
    <glyph glyph-name="c" unicode="c" horiz-adv-x="386" 
d="M325 306q0 -16 -5.5 -33t-10.5 -17q-11 0 -39.5 20t-28.5 28q0 4 -23.5 14t-33.5 10q-23 0 -45.5 -26.5t-27.5 -60.5q-8 -48 25.5 -86t83.5 -38q20 0 28.5 3.5t22.5 16.5q35 31 68 26q13 -2 15.5 -5.5t0.5 -18.5q-6 -58 -70.5 -91.5t-120.5 -9.5q-67 28 -67 40
q-1 3 -9 5.5t-8 7.5q0 7 -7 11q-26 23 -38 86.5t4 104.5q30 75 97 108q18 9 54 7.5t57 -11.5q29 -14 38 -20.5t22 -24.5q18 -25 18 -46z" />
    <glyph glyph-name="d" unicode="d" horiz-adv-x="379" 
d="M231 308q-41 10 -72.5 -13.5t-43.5 -73.5q-13 -57 25 -91t93 -1q27 15 30 26.5t-5 67.5q-8 60 -11.5 71t-15.5 14zM244 396q-2 42 20 168q4 17 9 24q4 5 28 4.5t30 -6.5q3 -26 4 -196t5 -192q12 -81 10.5 -108.5t-13.5 -41.5q-27 -29 -52 -7q-15 14 -25 9
q-38 -19 -63 -21.5t-57 8.5q-60 20 -90 78t-15 125q9 40 20.5 62t34.5 45q26 25 49 34.5t65 11.5z" />
    <glyph glyph-name="e" unicode="e" horiz-adv-x="376" 
d="M190 277q58 0 61 3q4 4 -6 20.5t-19 21.5q-20 13 -55 -4t-36 -34q0 -2 2 -3.5t9 -2.5t16.5 -1h27.5zM191 122q34 0 83 36q17 13 23 13.5t16 -9.5q28 -29 19.5 -52t-58.5 -49q-67 -36 -136.5 -10t-97.5 98q-10 24 -10 70.5t10 70.5q24 62 88 93.5t134 0.5q31 -14 54 -47
t29 -70q2 -15 0 -21t-14 -18q-14 -14 -27.5 -16t-98.5 -3h-83q-10 -31 13.5 -59t55.5 -28z" />
    <glyph glyph-name="f" unicode="f" horiz-adv-x="318" 
d="M288 549q0 -72 -9 -88q-8 -13 -10.5 -13.5t-9.5 4.5q-3 2 -10.5 6t-9 5.5t-7 5t-7.5 5.5l-6.5 6.5t-8 9.5t-8.5 12q-34 49 -62 40q-10 -3 -17 -39q-8 -41 -5 -47t29 -6q43 0 64 -15.5t10 -40.5q-7 -16 -20 -23t-43 -10l-34 -3q5 -143 9 -187q5 -53 -4 -75.5t-36 -23.5
q-13 0 -28 13.5t-18 27.5q-5 22 -11 133.5t-6 179.5q0 100 8 116q19 41 32 57.5t35 28.5q33 18 73 5.5t78 -51.5z" />
    <glyph glyph-name="g" unicode="g" horiz-adv-x="376" 
d="M134 189q8 -9 13.5 -12.5t8.5 -4.5t11 -3.5t18 -7.5q16 -8 22.5 -8.5t18.5 5.5q17 9 20 14q8 12 9 63.5t-6 62.5q-18 27 -57.5 23.5t-59.5 -32.5q-12 -18 -13.5 -52.5t15.5 -47.5zM104 35q2 -7 25.5 -33t24.5 -35q0 -4 11 -5t27 1.5t27 8.5q18 8 24 22.5t6 51.5v21
q-86 0 -102 7q-39 15 -63 35.5t-42 56.5q-13 25 -12 72q2 47 6 53q8 10 10 20q5 16 23.5 41.5t25.5 25.5q6 0 14 8q8 6 42.5 15.5t50.5 9.5q18 0 38 -7q21 -8 36.5 2.5t27.5 10.5q19 0 32 -19q9 -13 10 -28.5t-2 -86.5q-4 -111 -2 -134q5 -54 -2.5 -123.5t-20.5 -85.5
q-57 -68 -142 -68q-32 0 -46.5 5.5t-34.5 24.5q-26 25 -29.5 46t12.5 55q18 37 24 35q1 0 1 -3z" />
    <glyph glyph-name="h" unicode="h" horiz-adv-x="386" 
d="M79 83q-17 0 -22 2.5t-10 12.5q-7 18 -16 366q-2 98 2 123.5t23 37.5q18 11 36 4t22 -23q6 -22 12 -167q2 -15 37 3q28 14 68.5 3.5t68.5 -39.5q19 -19 28 -54t17 -113q4 -41 10 -93q2 -19 0.5 -26t-11.5 -17q-30 -30 -64 -1q-13 10 -16.5 32.5t-11.5 126.5q-7 87 -32 97
q-44 17 -80 -44q-8 -14 -10 -31.5t-1 -83.5q1 -70 -0.5 -84.5t-10.5 -21.5q-11 -10 -39 -10z" />
    <glyph glyph-name="i" unicode="i" horiz-adv-x="182" 
d="M46 257q0 94 2 118.5t10 38.5q10 19 43 24q8 -3 34 -33v-313l-42 -2q-19 -2 -28 -0.5t-11.5 4t-4.5 10.5q-3 12 -3 153zM70 606q43 17 69.5 -15.5t3.5 -73.5q-10 -17 -31 -20q-20 -3 -24 -9q-4 -7 -24 -5t-26 10t-7.5 19.5t2.5 16.5q4 4 6 24q3 42 31 53z" />
    <glyph glyph-name="j" unicode="j" horiz-adv-x="305" 
d="M253 235q0 -239 -25 -277q-11 -16 -33 -31q-14 -10 -24.5 -13t-34.5 -3q-25 0 -35 3t-28 17q-25 20 -25 26q0 7 -9 12q-9 7 -9 28t9 31q14 16 39.5 11.5t38.5 -25.5q9 -14 23 -14q8 0 11 4t5 16q6 28 4 222q-1 105 0 132.5t8 43.5q8 21 21 23q25 5 37 -2q19 -10 23 -40
t4 -164zM153 537q0 4 -8.5 13.5t-8.5 16.5q0 9 17.5 26t26.5 18q4 0 7 6t9 7q3 1 8 2t6 1q6 1 27.5 -11t21.5 -16q0 -6 9 -6q10 0 6 -25q-5 -37 -21 -53t-48 -16q-12 -3 -30 12t-22 25z" />
    <glyph glyph-name="k" unicode="k" horiz-adv-x="410" 
d="M122 483q0 -121 7 -125q5 -3 10 3.5t9 5.5q8 0 8 4q0 3 7.5 10t16 13t17.5 12.5t10 7.5q48 43 74 40q21 -1 32 -15.5t7 -34.5q-3 -16 -34 -40q-9 -7 -20.5 -14.5t-14 -9t-3 -9t4.5 -15l17 -25.5q21 -30 38 -53.5t28 -39.5t28 -44t16 -41.5t-22 -26.5q-10 -7 -15 -7t-21 7
q-12 6 -18.5 10.5t-9 8.5t-8.5 12.5t-15 17.5q-11 13 -28 40t-22 33q-4 1 -13.5 18t-14.5 18q-1 2 -5 9.5t-7 10.5t-9.5 3t-14.5 -7q-17 -15 -19.5 -24t-0.5 -48q7 -116 -50 -116q-14 0 -28.5 14t-15.5 30q-1 -1 -2 31t-2.5 79t-2.5 95.5t-2.5 86.5t-2.5 45q-3 20 1.5 88
t8.5 75q4 8 33 6.5t38 -9.5q7 -6 8.5 -27t1.5 -103z" />
    <glyph glyph-name="l" unicode="l" horiz-adv-x="165" 
d="M70 639q0 9 9 4q3 -2 5 -7q5 -5 13.5 -9.5t15.5 -13.5q10 -11 11.5 -33t0.5 -143q-2 -156 6 -229q7 -67 -2 -85q-10 -18 -33.5 -19.5t-40.5 14.5q-8 8 -11.5 26.5t-8.5 88.5q-8 126 1 325q2 29 4 38t13 20q17 19 17 23z" />
    <glyph glyph-name="m" unicode="m" horiz-adv-x="520" 
d="M105 430q1 -7 7.5 -7t28.5 8q28 10 62.5 8t55.5 -14l24 -13l31 13q40 18 77.5 12.5t57.5 -31.5q4 -5 8.5 -11l6 -8t4 -7t5 -11t5.5 -16q10 -31 11 -142q1 -79 0 -99t-9 -28q-11 -12 -28.5 -11.5t-31.5 12.5q-11 9 -13.5 23.5t-4.5 92.5q-2 74 -10 124q-3 22 -27.5 23.5
t-37.5 -10.5l-14 -11l4 -220q-3 -1 -16.5 -7t-18.5 -6.5t-20 1.5q-23 10 -30 30t-9 86q-2 80 -8 86q-5 6 -5 53q-40 2 -55.5 -7.5t-24.5 -45.5q-13 -52 -3 -135q5 -40 -1 -56t-28 -23q-15 -4 -21 -2.5t-20 11.5t-16 17.5t-3 44.5q-2 149 -8 218q-2 24 6.5 42t25.5 24
q12 5 27.5 2t15.5 -10zM141 456q-7 -1 -8 4q1 6 8 7q7 0 8 -5q1 -6 -6 -6h-2z" />
    <glyph glyph-name="n" unicode="n" horiz-adv-x="368" 
d="M202 439q30 0 41.5 -2.5t25.5 -13.5q35 -26 49 -69t18 -143q3 -70 1 -96t-12 -26q-5 0 -13 -8q-19 -25 -69 25q-3 191 -10 211l-10 30l-30 2q-13 2 -24 -1t-17.5 -7.5t-17 -14t-14.5 -12.5q6 -146 10 -178q2 -19 0.5 -25.5t-11.5 -16.5q-17 -17 -28 -17.5t-30 12.5
q-23 18 -26 34q-5 19 -5.5 147t3.5 140q10 27 30 31q11 2 25 -1.5t18 -10.5q9 -13 35 2q15 8 61 8z" />
    <glyph glyph-name="o" unicode="o" horiz-adv-x="438" 
d="M269 359q-50 25 -95 1.5t-52 -78.5q-3 -28 3.5 -43.5t31.5 -42.5q26 -27 48 -34.5t48 0.5q20 6 32 23.5t24 47.5q7 16 6 45t-10 47q-11 21 -36 34zM74 156q0 3 -8.5 8.5t-7.5 11.5q0 7 -5 7q-7 0 -15 25t-8 43q1 24 8.5 57.5t15.5 49.5q10 17 33.5 43.5t29.5 26.5
q7 0 7 4q0 5 27.5 17t42.5 14q51 7 103 -15q29 -13 60.5 -47t40.5 -63q25 -82 -19 -169q-27 -55 -57 -73t-95 -20q-22 -1 -37 0.5t-20.5 3.5t-16.5 7t-18 7q-6 0 -33.5 28t-27.5 34z" />
    <glyph glyph-name="p" unicode="p" horiz-adv-x="394" 
d="M275 250q0 65 -61 92q-55 24 -78 -23q-8 -17 -13.5 -74.5t0.5 -65.5q7 -10 39.5 -18.5t48.5 -0.5q34 9 49 30t15 60zM308 389q3 0 19.5 -24t26.5 -42t10 -66q0 -147 -138 -185q-33 -9 -107 7v-70q0 -51 -2 -63t-12 -22q-9 -9 -16.5 -11t-26.5 1q-30 4 -31 5
q-2 4 -1 169.5t3 220.5q3 73 13.5 102.5t34.5 34.5q18 3 23.5 2t11.5 -10q6 -8 11 -9t19 3q34 11 75.5 3t64.5 -30q16 -16 22 -16z" />
    <glyph glyph-name="q" unicode="q" horiz-adv-x="482" 
d="M255 346q-8 8 -33 11.5t-41 -1.5q-26 -8 -49 -53q-17 -34 -6.5 -71t41.5 -57q25 -15 52 -17t46 10v68q1 70 -0.5 86t-9.5 24zM323 461q24 0 34.5 -11.5t9.5 -37.5q0 -20 -6 -195.5t-7 -193.5q-1 -30 1.5 -35t19.5 -5q25 0 45.5 -7.5t29.5 -23.5t-12 -41q-7 -9 -16 -11
t-44 -3q-57 -2 -66 -5t-17 0t-20 13t-13 11q4 102 3 156q-27 -8 -66 -2.5t-57 17.5q-7 7 -14 7q-9 0 -37.5 33t-42.5 59q-18 33 -18 73t18 72q38 69 80 95q23 14 35 17t45 3q45 0 53 -6q7 -8 16.5 -6t15.5 13q7 14 30 14z" />
    <glyph glyph-name="r" unicode="r" horiz-adv-x="327" 
d="M242 297q-3 8 -10 14.5t-13 16.5q-12 21 -23.5 25t-29.5 -6q-60 -33 -35 -179q6 -39 2 -55t-23 -24q-15 -7 -24.5 -5.5t-24.5 13.5q-16 12 -20.5 33t-7.5 106q-4 118 -2 147t16 49q9 13 26 12.5t29 -13.5l12 -13q70 35 112 18q25 -10 38.5 -21t23.5 -33q22 -49 -9 -77
q-26 -23 -35 -14q-2 2 -2 6z" />
    <glyph glyph-name="s" unicode="s" horiz-adv-x="370" 
d="M272 61q-4 -2 -18 -9.5t-26.5 -10t-38.5 -2.5q-48 0 -78 15q-50 26 -70 71q-17 41 -3 55q5 5 8 11.5t10 11.5q13 10 37.5 -2.5t24.5 -28.5q0 -11 16 -27q10 -12 18.5 -14.5t30.5 -2.5q35 1 47.5 12t12.5 41q0 22 -7.5 37t-18.5 15q-7 0 -53 23.5t-46 27.5q0 3 -4.5 4
t-8 2.5t-3.5 5.5q0 7 -11 14q-22 13 -7 67t46 70q2 1 12.5 6t18 8.5t18 7t17.5 3.5q18 0 41 -6.5t32 -13.5q8 -8 15 -8q12 -5 21 -20.5t6 -33.5q-5 -23 -15 -34t-27 -8q-17 4 -25 -2q-14 -13 -22 14q-2 8 -10.5 11t-10.5 7q-2 5 -8.5 3t-13 -7t-5.5 -6q0 -4 28 -25t34 -21
q10 0 37.5 -20.5t38.5 -37.5q61 -90 -9 -174q-24 -29 -31 -29z" />
    <glyph glyph-name="t" unicode="t" horiz-adv-x="325" 
d="M252 444q12 0 27.5 -14.5t15.5 -26.5q0 -14 -15 -31q-10 -12 -16.5 -14.5t-26.5 -1.5l-28 2q-4 -219 -10 -254q-8 -14 -33 -14.5t-41 13.5q-11 10 -12.5 19.5t-0.5 50.5q2 71 0 183q-37 -3 -61.5 8t-19.5 35q9 41 85 47q1 25 3.5 76.5t4.5 77.5l19 17q17 15 29 13.5
t28 -18.5q10 -10 11 -22t-1 -66l-4 -73q2 0 20 -3.5t26 -3.5z" />
    <glyph glyph-name="u" unicode="u" horiz-adv-x="372" 
d="M60 137q0 7 -6 9q-21 23 -25 129.5t9 130.5q14 33 42 33q28 -1 36.5 -29.5t9.5 -122.5q2 -80 4 -86q5 -16 22 -25t39 -9q25 0 35 6.5t17 28.5q6 20 6.5 84t-5.5 90q-4 17 1.5 36.5t16.5 27.5q7 5 24.5 3t26.5 -9q14 -12 19.5 -38t8.5 -91q4 -82 -6 -120t-24 -56t-44 -35
q-25 -14 -68 -15.5t-70 9.5q-21 8 -45 25t-24 24z" />
    <glyph glyph-name="v" unicode="v" horiz-adv-x="425" 
d="M63 337q0 8 -8.5 18.5t-8.5 17.5q0 8 -8 18q-9 9 -7.5 16.5t16.5 20.5q35 32 66 -1q19 -21 53 -96q20 -45 26 -59q22 -47 25 -47q2 0 6 7q53 88 84 165q0 7 17 24.5t23 17.5q28 0 41 -23q7 -12 7 -20t-8 -32q-18 -52 -66.5 -139.5t-57.5 -106.5q-12 -25 -18 -30t-21 -5
q-42 0 -67 55q-66 146 -83 170q-11 16 -11 29z" />
    <glyph glyph-name="w" unicode="w" horiz-adv-x="597" 
d="M96 259q0 4 -8.5 14t-8.5 16q0 25 -22.5 62.5t-26.5 49.5q-1 7 10.5 18t22.5 16q8 3 24.5 0.5t23.5 -8.5q6 -5 73 -145q19 -41 26 -43q5 0 16 38q28 100 44 128t45 28q21 0 31.5 -14.5t27.5 -65.5q4 -11 16 -42.5t18 -53.5q5 -17 15 -18q6 -1 6 10q23 87 44 125q5 6 8 20
q10 39 48 39q31 0 36.5 -22.5t-13.5 -71.5q-59 -157 -66 -180q-16 -51 -26.5 -63.5t-39.5 -12.5q-16 0 -31 11.5t-15 23.5q0 10 -7 14q-8 5 -35 74q-13 32 -17.5 40t-8.5 6q-4 -4 -4 -10q2 -1 -6 -22t-21 -50.5t-16 -38.5q-8 -21 -15.5 -30t-22.5 -13t-42 13.5t-27 31.5
q2 4 -27 63.5t-29 62.5z" />
    <glyph glyph-name="x" unicode="x" horiz-adv-x="370" 
d="M74 179q-1 3 16.5 26t17.5 25q0 3 11 16q12 13 9.5 26t-20.5 42q-2 3 -17.5 32t-24.5 34t-9 16t9.5 23.5t22.5 15.5q40 10 66 -30q17 -25 21 -26q2 -3 4.5 -10.5t8.5 -13.5q5 -8 11.5 -4t26.5 28q35 42 44.5 49.5t29.5 7.5q44 0 38 -43q-2 -15 -10 -26.5t-33 -38.5
q-52 -55 -46 -75q3 -10 9 -14.5t9 -14.5q5 -15 26 -38q30 -33 30 -63q0 -40 -38 -40q-13 0 -21.5 5t-25.5 23q-26 30 -26 33q0 6 -4 6q-2 -1 -9 10q-12 21 -17 21q-2 0 -4 -4q-28 -28 -34 -50q-2 -6 -8.5 -9t-6.5 -9q0 -10 -21 -26t-33 -16q-13 0 -29.5 14.5t-16.5 25.5
q-1 7 5 9.5t6 8.5q0 7 12 25.5t18 20.5q3 1 3 8z" />
    <glyph glyph-name="y" unicode="y" horiz-adv-x="425" 
d="M145 166q-6 7 -8.5 15.5t-6.5 14.5q-5 7 -41 74t-43 76q-32 38 -1 81q17 23 22 23q11 0 47.5 -49t54.5 -87q8 -18 17.5 -35.5t14.5 -29.5q6 -15 11 -9q6 7 33 68q2 4 9.5 20.5t9.5 20.5t8 17.5t10 19.5t10 16.5t12.5 19.5t14.5 18q16 19 22 22t18 -2q16 -5 27 -19.5
t8 -25.5q-6 -18 -16.5 -38.5t-25 -44.5t-20.5 -35q-9 -17 -58 -128t-64 -138q-3 -6 -29 -60q-21 -46 -38 -56t-45 6q-29 16 -12 54q7 15 28.5 62.5t28.5 61.5q21 46 2 67z" />
    <glyph glyph-name="z" unicode="z" horiz-adv-x="390" 
d="M254 256q-2 1 -11 -12t-18.5 -25.5t-11.5 -12.5q-4 -1 -6 -9t-8 -10q-19 -7 9 -10q19 -2 56 -2q54 0 66.5 -4.5t24.5 -28.5q13 -27 -16 -45q-12 -9 -160 -11h-1h-1h-1h-1h-1h-1h-1h-1h-1h-1h-1h-1h-1h-1h-1h-1h-1h-1h-2h-1h-1q-113 -3 -124 4q-7 5 6 27q1 1 2 3q2 3 3 5
q10 15 18 31q4 8 34.5 44.5t34.5 37.5q4 3 7 10.5t9 13.5q65 75 60 80q-1 1 -52 5q-55 4 -71 7.5t-31 16.5q-13 11 -14.5 15t5.5 17q8 17 15.5 23.5t20.5 8.5q37 7 125 1t108 -16q12 -6 14.5 -11t2.5 -22q0 -37 -48 -90q-1 -1 -7 -12.5t-11 -12.5q-3 0 -4.5 -3.5t-2.5 -8
t-3 -4.5z" />
    <glyph glyph-name="uni0093" horiz-adv-x="328" 
d="M163 496q5 7 9 23t15 23q7 5 21.5 18t27.5 19q16 8 22 8t20 -8q39 -21 5 -68q-11 -16 -13.5 -35t4.5 -24q15 -9 19 -30t-8 -34q-8 -10 -37 -10.5t-38 8.5q-7 7 -23 11q-32 8 -33 55q-1 28 9 44zM92 579q11 9 28.5 9.5t26.5 -8.5q13 -13 12 -28t-17 -43
q-17 -32 -18.5 -40.5t9.5 -22.5q18 -21 5.5 -47.5t-41.5 -22.5q-43 6 -61 43q-6 13 -5.5 40.5t7.5 36.5q6 8 9 21q4 12 18 32t27 30z" />
    <glyph glyph-name="uni0094" horiz-adv-x="607" 
d="M31 63q8 7 16 -5q7 -9 -2 -14q-5 0 -11 8t-3 11zM572 556q-5 -1 -6 6q0 3 2 3t4 -1q11 -8 0 -8zM291 572q5 0 14 9q7 8 25 7.5t30 -8.5q29 -21 28 -89q-2 -98 -19 -110q-26 -20 -56 -7q-37 19 -17 72q9 24 8.5 39t-10.5 43q-5 14 -7.5 22t-3 13.5t1.5 7t6 1.5zM227 561
q0 -5 15 -5q23 0 29 -15t6 -72q0 -49 -1.5 -60t-9.5 -15q-11 -7 -25 -3q-14 3 -14 -3t-16.5 -16.5t-26.5 -10.5q-13 0 -48 32q6 16 11.5 41.5t7 49t-7.5 27.5q-11 9 -8 26.5t17 33.5q17 17 31 14t27 -11t13 -13z" />
    </font>
</defs>
</svg>
