<?xml version="1.0" standalone="no"?>
<!DOCTYPE svg PUBLIC "-//W3C//DTD SVG 1.1//EN" "http://www.w3.org/Graphics/SVG/1.1/DTD/svg11.dtd" >
<svg>
<metadata>
Created by FontForge 20110222 at Sun Oct 20 21:13:33 2013
 By Orthosie Webhosting
Created by www-data with FontForge 2.0 (http://fontforge.sf.net)
</metadata>
<defs>
<font id="YoungAgrariansBoldBold" horiz-adv-x="395" >
  <font-face 
    font-family="YoungAgrariansBoldBold"
    font-weight="700"
    font-stretch="normal"
    units-per-em="1000"
    panose-1="2 0 8 3 0 0 0 0 0 0"
    ascent="800"
    descent="-200"
    x-height="418"
    cap-height="591"
    bbox="29.0702 -112.127 669 639"
    underline-thickness="50"
    underline-position="-100"
    unicode-range="U+0020-0094"
  />
<missing-glyph horiz-adv-x="500" 
d="M50 0v533h400v-533h-400zM100 50h300v433h-300v-433z" />
    <glyph glyph-name=".notdef" horiz-adv-x="500" 
d="M50 0v533h400v-533h-400zM100 50h300v433h-300v-433z" />
    <glyph glyph-name=".null" horiz-adv-x="0" 
 />
    <glyph glyph-name="nonmarkingreturn" horiz-adv-x="333" 
 />
    <glyph glyph-name="space" unicode=" " horiz-adv-x="250" 
 />
    <glyph glyph-name="exclam" unicode="!" horiz-adv-x="131" 
d="M101 144q0 -25 -20 -35t-40 5q-11 8 -11 34t11 34q20 15 40 2.5t20 -40.5zM62 610q12 5 17 0q4 -15 4.5 -150.5t2.5 -151.5q5 -45 3.5 -56t-11.5 -15q-11 -4 -20 1t-11 18q-3 15 -7 141q-6 201 22 213z" />
    <glyph glyph-name="quotedbl" unicode="&#x22;" horiz-adv-x="228" 
d="M50 556q15 0 22 -11t13 -44q5 -31 9 -45q2 -14 -9.5 -26.5t-21.5 -7.5q-8 5 -22 59.5t-10 65.5q4 9 19 9zM198 487q0 -58 -10 -74q-9 -17 -14 -17.5t-14 12.5t-9 74q1 12 0 20t0 15.5t1 11.5t1.5 8.5t2.5 6.5t3.5 5.5t4 5t5 5.5t6.5 7q12 -11 13 -12t5.5 -11t4.5 -20.5
v-36.5z" />
    <glyph glyph-name="dollar" unicode="$" horiz-adv-x="343" 
d="M224 213q0 -63 5 -63t18 18t14 51t-12 49q-17 23 -21 9q-4 -12 -4 -64zM169 333q-8 5 -15 -55q-4 -25 -8 -74q-2 -26 -3 -30q-4 -26 4 -38q7 -9 17 -8t11 10q0 2 2.5 50t3.5 87t-2 49q-5 9 -10 9zM174 522q-11 0 -14 -14q-4 -16 -0.5 -60t9.5 -50q9 -9 13 12q2 16 2 54
q0 40 -1.5 49t-8.5 9zM136 639q6 0 17.5 -16.5t13.5 -29.5q2 -9 5.5 -12t7 1t4.5 13q1 12 10 21.5t20 12.5q7 1 8.5 -1t2.5 -13q1 -43 25 -54q52 -28 52 -74q0 -17 -9.5 -22.5t-20 0t-12.5 16.5q-3 12 -13.5 22.5t-15.5 5.5q-3 -3 -5 -60q-2 -53 6.5 -77.5t41.5 -58.5
q20 -21 27.5 -32.5t9.5 -27.5q11 -66 -20 -109q-12 -17 -25.5 -30.5t-16.5 -13.5q-8 0 -16.5 -14t-9.5 -30q-2 -18 -4.5 -22t-16.5 -5q-14 -2 -17.5 1t-7.5 18q-5 21 -15 23q-7 1 -8.5 -5t-1.5 -32q0 -25 -2 -33.5t-9 -13.5q-12 -8 -22 -5q-6 2 -9 11.5t-5 40.5q-3 39 -8 49
t-30 28q-21 15 -29 31.5t-8 45.5q0 45 14 42q4 -1 10 -9q9 -13 9 -18q0 -3 7 -15t15 -22t9 -9q3 3 13 102.5t8 105.5q-4 8 -27 33q-33 35 -32 72t35 68q17 14 23 24t8 26q1 6 2.5 15.5t2 15.5t3 12t6.5 8z" />
    <glyph glyph-name="percent" unicode="%" horiz-adv-x="379" 
d="M294 227q1 11 -3 11q-6 0 -7 -9q0 -5 4 -8q5 -1 6 6zM285 294q14 0 39 -36t25 -56q0 -10 -17.5 -25.5t-29.5 -15.5q-19 0 -38 13t-27 30q-4 9 -4.5 18.5t1.5 16.5t7 15.5t9 13t11 11.5q13 15 24 15zM77 450q6 0 5.5 8.5t-5.5 8.5t-5 -8.5t5 -8.5zM30 453q0 38 14 51
t53 11h27v-47q0 -43 -9.5 -55.5t-41.5 -12.5q-27 0 -35 9.5t-8 43.5zM242 512q4 6 8.5 16t6.5 14t6 9.5t8 7t10.5 1.5t14.5 -2t9.5 -7t-5.5 -23.5t-20.5 -46t-43.5 -84.5q-25 -45 -80 -158q-72 -145 -81 -151q-20 -13 -30 9q-5 12 0 28.5t28 60.5q140 273 169 326z" />
    <glyph glyph-name="ampersand" unicode="&#x26;" horiz-adv-x="486" 
d="M313 227v50l-17 6q-31 10 -68 3t-37 -24q0 -10 -10 -27.5t-16 -17.5t-18 19q-17 27 -3 55t49 38q25 6 98 8q71 2 90 6.5t20 22.5q2 19 -4 25q-7 9 4.5 20t25.5 10q35 -3 29 -57q-2 -24 -18 -40t-50 -29l-27 -11v-57q2 -50 -5.5 -76.5t-31.5 -49.5q-29 -29 -88.5 -33.5
t-107.5 18.5q-98 47 -98 162q0 29 4 43.5t22 51.5q18 36 20.5 47t-3.5 23q-9 20 -7.5 66.5t11.5 62.5q34 55 82.5 63.5t102.5 -37.5q36 -31 1 -42q-14 -5 -42 12q-52 32 -84 2q-20 -19 -25 -37.5t2 -46.5l8 -31l131 -6q-3 -4 -11 -16t-11.5 -15t-15 -7.5t-29.5 -6.5
q-47 -5 -60 -13.5t-30 -43.5q-14 -28 -14 -73t14 -70q28 -51 119 -56q28 -2 39 -0.5t23 10.5q21 14 28.5 35t7.5 64z" />
    <glyph glyph-name="quotesingle" unicode="'" horiz-adv-x="109" 
d="M79 518q0 -133 -30 -133q-4 0 -9 3q-9 5 -10 16.5t2 66.5l3 76q32 28 39 27q5 -3 5 -56z" />
    <glyph glyph-name="parenleft" unicode="(" horiz-adv-x="260" 
d="M30 293q0 105 69 213q17 27 44.5 63t40.5 47q23 21 39 5q15 -15 -14 -47q-50 -53 -63.5 -75.5t-38.5 -78.5q-37 -77 -24 -174.5t72 -155.5q45 -44 19 -57q-15 -8 -29.5 1.5t-47.5 46.5q-24 29 -45.5 96.5t-21.5 115.5z" />
    <glyph glyph-name="parenright" unicode=")" horiz-adv-x="236" 
d="M105 583q0 -5 5 -5q4 0 25.5 -33.5t29.5 -52.5q29 -66 37.5 -149t-5.5 -161q-11 -62 -34 -111t-41 -49q-13 0 -17 20t6 37q18 32 33.5 95.5t15.5 104.5q0 34 -10.5 90t-20.5 77q-8 18 -8 23q0 6 -26.5 46.5t-38.5 53.5q-13 14 -20.5 27.5t-4.5 16.5q6 6 29.5 1.5
t32.5 -13.5q12 -12 12 -18z" />
    <glyph glyph-name="asterisk" unicode="*" horiz-adv-x="297" 
d="M199 333q-4 1 -10.5 9.5t-14.5 7.5q-8 0 -9 -3t1 -15q4 -19 -6 -28q-14 -14 -27.5 -5.5t-13.5 32.5q0 12 -3 15.5t-10 0.5t-21 -14q-26 -20 -42.5 -14.5t-10.5 33.5q2 7 20.5 18.5t35 21t14.5 14.5q0 3 -33 21q-55 28 -30 48q10 8 18.5 7.5t28.5 -10.5q23 -11 28 -8
q3 2 4 37.5t3 37.5q12 16 28 -7q7 -3 8.5 -38t4.5 -38q4 0 19 11q46 36 61 18q4 -5 4 -14t-19 -29t-28 -20q-8 0 -10 -9t5 -16q9 -9 42 -31q26 -17 30 -25.5t-6 -22.5q-17 -25 -42 1q-14 14 -19 14z" />
    <glyph glyph-name="plus" unicode="+" horiz-adv-x="363" 
d="M224 178q0 -61 -8 -69t-12.5 -8.5t-13.5 6.5t-12 70q-4 64 -6 66t-48.5 -3t-63.5 -10q-10 -3 -20 6t-10 20q0 25 76 33q54 6 61 11.5t7 40.5q0 33 7 61q5 17 7.5 19t13.5 -8q15 -14 19 -29.5t1 -46.5l-4 -39l48 4q32 2 41 1t17 -9q13 -15 4.5 -22.5t-46.5 -18.5
q-15 -4 -35 -7q-17 -2 -20 -8.5t-3 -44.5v-15z" />
    <glyph glyph-name="comma" unicode="," horiz-adv-x="130" 
d="M38 163q19 6 27.5 1.5t20.5 -31.5q28 -66 -9 -117q-8 -11 -25.5 -20t-21.5 -5q-2 2 7 35q19 65 6 90q-7 14 -8.5 28t3.5 19zM40 617q0 9 8 3q3 -2 4 -6q3 -6 -1 -6q-8 -1 -11 7v2z" />
    <glyph glyph-name="hyphen" unicode="-" horiz-adv-x="267" 
d="M43 264q34 14 135 12q51 -1 56 -10q7 -11 -0.5 -20.5t-24.5 -13.5q-44 -8 -179 -11q9 38 13 43z" />
    <glyph glyph-name="period" unicode="." horiz-adv-x="149" 
d="M48 148q19 11 40 3t31 -21q3 -8 -14.5 -24.5t-29.5 -16.5q-34 1 -42.5 19.5t15.5 39.5z" />
    <glyph glyph-name="slash" unicode="/" horiz-adv-x="249" 
d="M55 94q-15 0 -21 6.5t-3 29.5t14.5 59t34.5 103q33 91 63 179q26 76 41 91q14 14 20 15t12 -11q5 -10 -2 -34t-46 -132q-46 -126 -61 -171.5t-28 -104.5q-5 -20 -9 -25t-15 -5z" />
    <glyph glyph-name="zero" unicode="0" horiz-adv-x="359" 
d="M182 133q37 0 71 63q11 20 14.5 38.5t7.5 71.5q6 93 -6.5 155.5t-40.5 75.5q-36 17 -58.5 5t-56.5 -67q-21 -35 -28 -86q-16 -122 9.5 -189t87.5 -67zM80 518q27 40 50.5 57.5t62.5 23.5q16 2 44 -9t41 -24q21 -21 36 -83t15 -130q0 -86 -13.5 -135t-51.5 -94
q-15 -18 -24.5 -24t-29.5 -11q-30 -6 -57 0q-17 4 -28.5 9t-17.5 9t-24 19q-30 25 -43.5 93.5t-5.5 141.5q6 61 15.5 93.5t30.5 63.5z" />
    <glyph glyph-name="one" unicode="1" horiz-adv-x="140" 
d="M93 588q7 -10 10 -19t5.5 -18t2.5 -30v-39.5t-0.5 -62.5t-0.5 -85v-218q-24 -13 -37 -5q-9 5 -10 27.5t-1 169.5v191q-28 1 -31.5 22t22.5 47q14 15 40 20z" />
    <glyph glyph-name="two" unicode="2" horiz-adv-x="420" 
d="M263 439q0 43 -15 65q-12 18 -34.5 32t-39.5 14q-23 0 -54.5 -20t-31.5 -34q0 -10 -21 -45q-1 -2 -8 4t-14 14t-7 11q0 34 32 67.5t73 44.5q21 5 35 4t46 -11q25 -8 46.5 -29t28.5 -43q9 -29 10 -70t-6 -68q-11 -38 -29.5 -63t-60.5 -61q-45 -38 -84.5 -76.5t-36.5 -41.5
q22 -2 93.5 1.5t103.5 -0.5q61 -7 70 -10t31 -23q-8 -4 -13.5 -6.5t-10.5 -4.5t-13 -3t-14.5 -2t-21.5 -1h-27.5t-39.5 -0.5t-50 -0.5q-109 -1 -134.5 0t-30.5 9q-7 9 -5 20t15 37q8 17 32.5 41.5t101.5 95.5q49 45 66.5 77t17.5 76z" />
    <glyph glyph-name="three" unicode="3" horiz-adv-x="393" 
d="M363 254q0 -17 -2.5 -32t-5 -23t-7.5 -20.5t-7 -19.5q0 -8 -24.5 -34t-44.5 -39q-83 -53 -169 -14q-46 21 -62 49t-8 75q5 4 19 -7.5t22 -27.5q13 -25 32 -35.5t57 -12.5q41 -3 66.5 5.5t47.5 32.5q79 87 12 186q-14 21 -28 28.5t-39 8.5q-26 1 -34 12q-9 12 -6 20.5
t23 24.5q29 24 34.5 59.5t-16.5 53.5q-13 10 -48 11t-48 -9q-12 -9 -22.5 -30t-22.5 -28q-9 -4 -12.5 -3.5t-8.5 7.5q-14 18 -1 47q17 41 64 58q43 14 84.5 5t63.5 -38q15 -20 18 -51.5t-7 -60.5l-10 -27l31 -31q33 -34 46 -65t13 -75z" />
    <glyph glyph-name="four" unicode="4" horiz-adv-x="311" 
d="M234 574q1 35 6 39.5t24 -9.5l17 -12q-1 -34 -4 -103t-5.5 -127.5t-4.5 -117t-4 -92.5t-3 -33q-3 -18 -18 -22q-16 -4 -21 6.5t-6 50.5q0 24 -0.5 78t-0.5 79h-66q-54 -1 -76 4.5t-32 23.5q-7 14 -9.5 124t4.5 118t17.5 7.5t15.5 -9.5q4 -9 8 -108q4 -100 12 -105
q6 -5 64.5 -4t63.5 6q4 4 10.5 80.5t7.5 125.5z" />
    <glyph glyph-name="five" unicode="5" 
d="M47 189q5 1 28.5 -27.5t27.5 -28.5q31 -9 74.5 -5t68.5 20q32 20 54.5 59.5t22.5 75.5q0 19 -11 57.5t-20 53.5q-38 57 -129 58q-34 1 -42 -1.5t-19 -15.5q-14 -18 -25 -18q-9 0 -18 13.5t-6 23.5q2 3 8.5 70t9.5 70q30 10 139 10q78 0 91 -12q20 -18 6 -34.5t-43 -8.5
q-28 7 -86 7h-21.5h-16.5t-12.5 -1.5t-8.5 -2.5t-6 -4t-3.5 -5t-1.5 -7.5t-0.5 -9t-0.5 -11.5v-14l60 -2q55 -2 81.5 -13t66.5 -48q29 -27 40 -61t10 -94q0 -57 -13 -84q-9 -19 -35 -49.5t-38 -35.5q-5 -3 -16.5 -8.5t-15.5 -7t-13.5 -5.5t-15.5 -5t-16 -3t-20.5 -2.5
t-24.5 -0.5q-46 0 -56.5 1.5t-27.5 13.5q-23 16 -35 32q-7 10 -8 16.5t4 21.5q6 22 13 22z" />
    <glyph glyph-name="six" unicode="6" 
d="M105 294q-7 0 -16.5 -19t-9.5 -33q0 -34 33 -73.5t75 -56.5q29 -11 42.5 -11t30.5 10q42 26 55 80q12 47 -6.5 87t-56.5 50q-36 10 -79.5 1.5t-56.5 -27.5q-4 -8 -11 -8zM299 361q6 0 28 -23.5t30 -38.5q9 -17 8 -68q-1 -85 -36 -122q-11 -13 -11 -15q0 -7 -21.5 -18.5
t-40.5 -14.5q-80 -11 -137 30t-80 111q-28 85 32.5 205t168.5 193q20 14 34 14t15 -14q3 -12 -29 -41q-77 -68 -101 -103q-16 -25 -34 -58t-16 -35q7 1 42 12t45 12q20 2 51 -4t38 -15q5 -7 14 -7z" />
    <glyph glyph-name="seven" unicode="7" horiz-adv-x="362" 
d="M280 436q-26 -59 -46 -121q-3 -8 -16.5 -43t-28.5 -81q-20 -56 -32.5 -76.5t-25.5 -16.5q-16 6 -11.5 33.5t32.5 107.5q20 57 68.5 179t53.5 135q0 3 -122 3t-122 10t10.5 20t26.5 14q23 5 136 5q86 1 104 -1t23 -10q11 -20 -50 -158z" />
    <glyph glyph-name="eight" unicode="8" horiz-adv-x="386" 
d="M113 151q20 -22 60.5 -27.5t68.5 14.5q47 36 60.5 88.5t-14.5 98.5q-15 25 -52 55t-68 42q-12 -1 -42.5 -37.5t-42.5 -67.5q-16 -39 -7.5 -86t37.5 -80zM233 544q0 15 -13 19q-56 15 -101 -20q-10 -8 -3 -21q32 -63 92 -14q25 20 25 36zM94 422q21 25 21 27.5t-22 26.5
q-13 15 -17 23.5t-8 28.5t4 36t14.5 21t25.5 17q15 9 75 8q48 -1 66.5 -10t27.5 -35q14 -39 -32 -82l-20.5 -20.5t-6.5 -8.5q92 -65 123 -133q11 -25 10.5 -68t-13.5 -71t-41 -57t-54 -41q-55 -24 -115 -3t-83 72q-28 63 -15 139.5t60 129.5z" />
    <glyph glyph-name="nine" unicode="9" horiz-adv-x="371" 
d="M78 434q0 -89 79 -112q32 -9 71.5 5.5t55.5 41.5q10 16 9 64.5t-11 77.5q-7 19 -12.5 24t-25.5 12q-51 16 -81 5q-16 -6 -38 -24.5t-32 -33.5q-15 -22 -15 -60zM115 133q10 0 48.5 36.5t65.5 72.5q15 20 23 28q2 3 -9 4q-12 0 -41 -1q-37 -1 -50 0.5t-34 12.5
q-30 15 -42.5 27.5t-26.5 40.5q-17 33 -18.5 72t11.5 71q12 28 42.5 57.5t59.5 40.5q27 10 72 7q58 -5 78.5 -22t36.5 -77q21 -80 -2 -166.5t-82 -148.5q-130 -137 -144 -120q-13 16 -9 40.5t21 24.5z" />
    <glyph glyph-name="colon" unicode=":" horiz-adv-x="132" 
d="M45 188q10 11 23 12t17 -9q5 -16 11 -24q15 -21 -3.5 -40.5t-42.5 -5.5q-18 11 -19.5 30.5t14.5 36.5zM62 422q6 0 21.5 -17t15.5 -23q-1 -22 -29.5 -30t-36.5 11t2 39t27 20z" />
    <glyph glyph-name="semicolon" unicode=";" horiz-adv-x="145" 
d="M72 156q14 0 18.5 -3.5t12.5 -20.5q12 -26 10.5 -48t-18.5 -57q-19 -39 -27 -49.5t-21 -10.5q-31 0 -1 59q9 18 14.5 37t5.5 30.5t-6 12.5q-7 1 -16.5 16t-0.5 22q7 12 29 12zM115 361q0 -19 -18 -30t-34 -2q-21 10 -25.5 28.5t11.5 28.5q19 14 42.5 5t23.5 -30z" />
    <glyph glyph-name="less" unicode="&#x3c;" horiz-adv-x="313" 
d="M228 383q-9 0 -10 -4t-91 -58q-28 -17 -29 -22q-1 -6 22 -22q2 -2 20 -14q19 -13 48.5 -30t48 -30.5t37.5 -35.5q7 -8 8.5 -11.5t0 -5.5t-7.5 -5q-12 -7 -28.5 -6t-22.5 8q-5 6 -13 9t-14 8q-5 5 -59.5 44.5t-59.5 44.5q-10 8 -12 8q-6 0 -21 17.5t-15 24.5q0 9 11.5 18
t60.5 38q25 15 75 48q17 12 36.5 14.5t24.5 -5.5q4 -7 0 -20t-10 -13z" />
    <glyph glyph-name="equal" unicode="=" horiz-adv-x="377" 
d="M347 208q0 -10 -4.5 -14.5t-22 -7t-48 -1.5t-86.5 4q-23 1 -45.5 2t-34.5 2.5t-22.5 1t-17 2t-10.5 2t-9.5 4.5t-6.5 6l-10 10l9 9t6 7t5.5 4.5t6 3t8.5 1.5t13 0.5t19.5 -0.5t27 -1t37.5 -2l48 -2q109 -3 126 -12q11 -5 11 -19zM57 363q3 1 135 3q93 1 110.5 -0.5
t19.5 -10.5q4 -10 -8 -22q-13 -11 -87 -16q-74 -6 -124.5 -2.5t-56.5 14.5q-5 10 -1.5 21t12.5 13z" />
    <glyph glyph-name="greater" unicode="&#x3e;" horiz-adv-x="399" 
d="M30 102q0 8 19 27.5t38 30.5q15 9 15 13q0 5 5 5q11 6 50 28.5t71 39t59 27.5q-8 7 -63.5 35.5t-65.5 37.5q0 4 -6 4q-4 0 -41 26q-28 20 -34.5 31t7.5 20q11 6 21 3q15 -5 41 -19t36 -23q13 -13 59 -34q97 -46 114 -58t12 -31q-2 -10 -19.5 -19.5t-86.5 -37.5
q-35 -14 -91.5 -48t-77.5 -54q-13 -13 -33 -20q-17 -7 -23 -3.5t-6 19.5z" />
    <glyph glyph-name="question" unicode="?" horiz-adv-x="326" 
d="M129 161q16 16 21 16.5t18 -11.5q23 -22 23.5 -45.5t-22.5 -31.5q-16 -6 -24.5 -4.5t-19.5 12.5q-32 32 4 64zM183 289q-1 -11 -26 -42l-15 14q-36 35 45 114q26 25 44.5 54t18.5 43q0 10 -13.5 33.5t-23.5 32.5q-31 24 -65 20.5t-55 -34.5q-15 -22 -15 -41
q0 -32 -20 -42q-15 -8 -24 12q-6 15 0 46q8 37 30.5 64.5t51.5 36.5q37 11 78 0.5t66 -38.5q87 -98 -36 -221q-41 -39 -41 -52z" />
    <glyph glyph-name="at" unicode="@" horiz-adv-x="521" 
d="M282 338q8 40 -5 58.5t-36.5 13t-46.5 -30.5q-18 -20 -23 -31t-2 -29q2 -11 6.5 -15t18.5 -9q21 -6 46 -6t30 7q4 4 12 42zM399 256q0 3 12 8.5t11 10.5q0 7 7 10q6 2 13 23.5t7 37.5q0 14 -7.5 44t-14.5 44q-16 30 -52 53t-81 31q-30 7 -66 -4q-44 -14 -83 -51t-60 -85
q-20 -46 -11 -106t41 -91q17 -17 68.5 -35t83.5 -18q49 0 72 20q9 8 26 7.5t20 -8.5q8 -21 -28 -45q-30 -19 -95.5 -18t-95.5 17q-1 1 -13 5.5t-19 7.5q-24 10 -52.5 40t-38.5 55q-12 30 -12.5 92t10.5 91q8 20 11 25.5t12 15.5t19 25q27 38 42 51q14 14 49 33t53 21
q178 21 245 -117q13 -26 15.5 -40.5t3.5 -56.5q1 -43 -1.5 -54.5t-17.5 -32.5q-30 -45 -79.5 -57t-89.5 23q-5 8 -17.5 10t-61.5 1h-70l-6 5q-6 6 -7 7.5t-5.5 6.5t-6 8l-4 8t-3.5 9.5t-1 9.5q0 115 100 154q19 7 27.5 7.5t36.5 -7.5q12 -3 29 -7q23 -5 25.5 -14t-5.5 -61
q-1 -5 -1 -7q-9 -56 3.5 -86t42.5 -25q20 4 20 9z" />
    <glyph glyph-name="A" unicode="A" horiz-adv-x="472" 
d="M189 347q0 -7 10 -7.5t54 1.5q66 4 67 5q8 8 -36 118l-1 2q-12 30 -17 31q-7 0 -33 -52q-2 -3 -4 -9q-2 -3 -3 -5q-37 -72 -37 -84zM424 78q-10 0 -20 13t-15 32q-32 127 -45 158q-3 9 -14 10.5t-65 -0.5q-69 -2 -89.5 -5.5t-20.5 -11.5q-3 -16 -15 -41t-18 -41
t-20.5 -46.5t-18.5 -47.5q-3 -16 -19 -23.5t-28 6.5q-14 18 6 58q3 6 24.5 57t28.5 61q8 12 11.5 23.5t9.5 23.5q16 31 102 224q27 63 35 68q13 10 28 -8q3 -4 5.5 -7.5t5.5 -10t5.5 -13t9 -22t12.5 -29.5q13 -30 26 -66.5t27 -84t22.5 -77t24.5 -85.5l20 -70q5 -16 0 -30.5
t-15 -14.5z" />
    <glyph glyph-name="B" unicode="B" 
d="M311 227q0 38 -21 70t-56 48q-20 9 -72.5 10t-69.5 -7l-14 -7q0 -8 1 -66t3.5 -96t7.5 -40q9 -9 47 -10t73 7q61 14 81 32t20 59zM237 488q0 36 -57 52q-30 9 -65.5 10t-36.5 -7q-1 -7 -1 -36t0.5 -56.5t-0.5 -47.5q35 -5 73 0.5t54 19.5q10 9 21.5 31.5t11.5 33.5z
M278 479q0 -47 -5 -50q-5 -4 -15.5 -20t-8.5 -17q9 -5 28 -18t34.5 -26.5t14.5 -17.5q0 -6 7 -13q10 -11 21 -44t11 -52q0 -22 -13 -50.5t-30 -42.5q-28 -24 -84 -37.5t-116 -11.5q-50 2 -66 12.5t-21 42.5q-5 29 -5.5 238.5t3.5 214.5q5 5 71 12q18 2 69 -9.5t65 -20.5
q25 -16 32.5 -33t7.5 -57z" />
    <glyph glyph-name="C" unicode="C" horiz-adv-x="455" 
d="M93 484q-1 3 16 23t17 21q5 6 19 12.5t20 10.5q43 27 83 27t103 -31q12 -6 22 -9.5t14.5 -6t13.5 -12.5q9 -13 3 -25.5t-16 -15.5q-8 0 -54 23q-43 21 -64.5 24.5t-49.5 -5.5q-23 -8 -49.5 -26t-27.5 -26q0 -7 -6 -7t-12 -15q-39 -98 -46 -139.5t8 -83.5q10 -29 30 -48
t68 -42q54 -26 106.5 -19t94.5 46q8 8 23 6q17 -2 16.5 -17t-17.5 -33q-26 -29 -46 -35.5t-86 -7.5q-35 2 -49 -0.5t-28.5 1.5t-17 5t-16 9.5t-25.5 14.5q-31 16 -31 20q0 5 -6 5q-14 1 -36 27t-27 48q-11 42 -10.5 72t12.5 84q5 26 23 72.5t23 46.5t5 6z" />
    <glyph glyph-name="D" unicode="D" horiz-adv-x="429" 
d="M79 534q-3 -23 7.5 -170t10.5 -173q0 -40 7 -49.5t36 -12.5q20 -2 62.5 8.5t47.5 18.5q3 5 12 5q8 0 30.5 20t35.5 38q17 25 22 64t-4 77q-6 26 -18 55t-16 29t-4 8q0 10 -29.5 33.5t-54.5 33.5q-33 13 -87 16q-58 4 -58 -1zM63 607q0 -8 28 -16t56 -8q71 0 130.5 -34.5
t86.5 -92.5q23 -48 29 -74t6 -74t-7 -70t-26 -49q-8 -8 -8 -13q0 -10 -49 -44q-45 -30 -100 -46q-44 -13 -94.5 -5.5t-58.5 27.5q-3 18 -10.5 139.5t-9.5 138.5q-7 55 -6 133.5t7 84.5q3 3 9.5 5t11.5 1.5t5 -3.5z" />
    <glyph glyph-name="E" unicode="E" horiz-adv-x="406" 
d="M32 588q19 7 129 5.5t140 -4.5t35 -5.5t6 -15.5q2 -22 -20 -26t-125 0q-120 4 -121 -4q-1 -25 1 -92t4 -69q1 -1 9 -1t22.5 1.5t29.5 4.5q71 15 169 -8q10 -2 12.5 -17.5t-5.5 -22.5q-9 -9 -41 -2q-49 9 -102 4.5t-96 -17.5l-4 -191q64 1 172 -5.5t118 -11.5
q11 -6 11 -16.5t-11 -16.5q-9 -5 -166 -2t-164 8q-3 2 -4 189t1 315z" />
    <glyph glyph-name="F" unicode="F" horiz-adv-x="369" 
d="M44 415q0 100 -9 121q-13 31 2.5 47t45.5 14l63 -3q63 -2 118.5 -5t60.5 -6q12 -6 13.5 -18t-9.5 -22q-10 -9 -41 -4q-16 3 -56 3.5t-77 0t-69 0.5q1 -15 1.5 -51t2 -63t5.5 -39q11 0 70.5 2t84.5 2.5t57 -1.5q26 -5 15 -35q-2 -7 -12.5 -8t-74.5 -3q-97 -1 -142 -9
l2 -114q1 -105 -1 -112q-2 -5 -17 -20q-2 -3 -5 -6q-5 6 -7 8t-5 6.5t-3.5 6t-2 8.5t-2 10.5t-1.5 14t-1 18.5t-0.5 25.5t-1.5 31.5q-4 76 -4 200z" />
    <glyph glyph-name="G" unicode="G" horiz-adv-x="514" 
d="M445 519q0 -13 -9.5 -19.5t-22 -3t-20.5 16.5q-25 38 -120 39q-49 1 -69.5 -6.5t-46.5 -34.5q-23 -24 -34.5 -45t-28.5 -69q-12 -36 -13 -97t11 -83q53 -96 136 -106t146 25q41 24 51 42t13 76q3 49 1.5 59t-10.5 15q-13 7 -61 3t-58.5 -3t-25.5 11q-11 8 -14 12t0.5 7.5
t14.5 7.5q42 14 99 14.5t98 -11.5v-89q1 -62 -0.5 -80t-8.5 -35q-21 -48 -99 -86q-29 -14 -43 -17t-54 -3q-73 0 -131 31.5t-87 81.5q-22 39 -27.5 96.5t5.5 99.5q11 50 14 58.5t34 67.5q11 22 40.5 52t47.5 40q36 19 100.5 18.5t101.5 -17.5q26 -12 48 -33.5t22 -34.5z" />
    <glyph glyph-name="H" unicode="H" horiz-adv-x="472" 
d="M31 586q4 9 19 6.5t22 -6.5q2 -2 3.5 -59.5t4 -115t5.5 -57.5q3 -7 26 -8t124 0h146q1 12 1 42.5t0.5 62t1.5 62.5t3 50.5t5 19.5q8 7 20 2.5t13 -16.5q4 -32 8 -208t6 -202q3 -32 3.5 -60.5t-1.5 -29.5q-3 -8 -14 -9.5t-18 4.5q-18 18 -24 153l-4 75q-19 0 -96 1.5
t-118 1.5t-74 -2q-3 -8 -4 -47.5t-0.5 -92.5t0.5 -67q-10 -9 -21.5 -11.5t-20.5 6t-10 26.5q-3 32 -6 251.5t0 227.5z" />
    <glyph glyph-name="I" unicode="I" horiz-adv-x="228" 
d="M125 61q-59 0 -68 9q-22 22 12 36l18 8q2 266 -8 422l-25 3q-18 2 -21.5 4.5t-2.5 12.5q-1 21 26 29t57.5 6t46.5 -8q5 -2 12 -16q2 -4 0 -8t-8 -7.5t-11.5 -5.5t-12.5 -5t-10 -4q9 -404 9 -409q1 -8 6 -12t22 -9q26 -8 30 -23t-9 -19t-63 -4z" />
    <glyph glyph-name="J" unicode="J" horiz-adv-x="322" 
d="M53 187q5 -8 16.5 -35.5t24.5 -41.5q12 -13 38 -12t38 14t14.5 64t-1.5 196q-4 169 -11 170q-10 1 -13 3.5t-9 12.5q-2 8 -3 14.5t5 10.5t11 6.5t16 3.5t19 1.5t20 0t19.5 -1t17 -1.5t13.5 -1q10 -1 19.5 -15t-2.5 -22q-14 -7 -31 -10q-13 -2 -17 -6t-7 -19
q-5 -21 2 -179q1 -87 3.5 -136t-6.5 -79t-21 -43t-39 -26q-50 -24 -96.5 4.5t-42.5 90.5q2 39 6 46q4 8 11 -1z" />
    <glyph glyph-name="K" unicode="K" horiz-adv-x="422" 
d="M100 399q-1 1 22 20.5t45.5 39t21.5 20.5q1 3 9.5 4.5t8.5 4.5q2 3 55 53q43 38 61 45.5t27 -9.5q5 -9 1 -17t-23 -26q-13 -11 -52 -43t-55 -47q18 -33 73 -140.5t72 -139.5q30 -56 26 -68q-6 -24 -32 -14q-11 5 -56 95q-22 45 -37 76q-47 95 -85 159q-16 -19 -34.5 -34
t-36.5 -34l-33 -32v-110q-1 -89 -5 -109.5t-22 -20.5q-13 0 -18 11q-5 10 -1.5 247t8.5 249q6 12 44 10l-2 -97q-1 -36 -1 -53.5t1 -28.5t2.5 -13.5t5.5 -2.5q10 0 10 5z" />
    <glyph glyph-name="L" unicode="L" horiz-adv-x="398" 
d="M368 102q0 -14 -15 -19q-21 -8 -165.5 -6.5t-152.5 10.5q-8 -9 -3 270q1 62 4 171q1 44 1 58q30 6 39 8q3 -15 -2 -460q165 -12 193 -9q62 6 81.5 1.5t19.5 -24.5z" />
    <glyph glyph-name="M" unicode="M" horiz-adv-x="570" 
d="M486 456q-4 0 -15 -21q-18 -34 -32 -63.5t-28.5 -64.5t-22.5 -54.5t-25.5 -66t-25.5 -65.5q-4 -11 -6.5 -21t-4.5 -16t-8 -15q-5 -8 -9.5 -6t-20.5 19q-15 15 -57.5 96t-79 152.5t-38.5 69.5q-5 7 -14.5 25t-14.5 23q-16 -154 -6 -253q9 -96 5 -104q-6 -16 -25 -11
t-23 24q-8 42 -4 344q1 91 2.5 108.5t9.5 21.5q18 9 35 -11t58 -105q28 -57 66 -125t63 -125q7 -17 18 -32q11 -14 19 -7q7 5 7 11q19 42 64 149t51 120q27 62 42 87t32 37q16 11 22 11t11 -9q5 -32 9 -482q-24 -40 -30 -39q-19 11 -20 235q0 163 -4 163z" />
    <glyph glyph-name="N" unicode="N" horiz-adv-x="505" 
d="M225 402q5 -4 7 -12t8 -11q4 -2 38 -43.5t36 -43.5q4 -4 37.5 -47t38.5 -48q7 -7 19 -26q23 -38 22 11q-1 5 -1 11q-4 46 -6.5 202.5t0.5 168.5q3 14 16.5 14.5t20.5 -12.5q6 -10 11.5 -196.5t1.5 -230.5q-3 -32 -10 -46.5t-20.5 -13t-32.5 18.5t-46 51q-13 16 -121 145
t-150 189q-9 13 -12 -12q-4 -28 -7 -180q-3 -193 -13 -204q-7 -7 -9.5 -6.5t-11.5 8.5t-10.5 39.5t0.5 208.5q1 238 8 242q16 10 39 -10t84 -94q58 -69 63 -73z" />
    <glyph glyph-name="O" unicode="O" horiz-adv-x="563" 
d="M291 103q72 0 97 12q42 19 68.5 61t26.5 101q0 32 -3 47.5t-16 43.5q-27 62 -69 106t-88 57q-66 20 -110 -5q-20 -11 -47 -43t-40 -60q-16 -33 -24.5 -76t-5.5 -72q5 -50 36 -93.5t77 -65.5q26 -13 98 -13zM533 274q0 -68 -37.5 -127t-95.5 -80q-34 -13 -108.5 -14.5
t-100.5 10.5q-69 31 -117 88q-11 14 -24 46.5t-17 54.5q-7 42 9 122q14 68 56 124.5t99 83.5q69 33 162 -17.5t140 -145.5q13 -27 23.5 -71.5t10.5 -73.5z" />
    <glyph glyph-name="P" unicode="P" horiz-adv-x="404" 
d="M266 529q-16 11 -30 13.5t-68 3.5q-76 2 -83 0q-5 -1 -6 -20.5t0 -91.5q2 -112 3 -115q2 -7 55.5 -10t85.5 2q106 18 100 117q-3 63 -57 101zM80 169q0 -63 -1.5 -75.5t-10.5 -16.5q-4 -6 -10.5 -3t-10 6.5t-9 10.5t-7.5 9v471q22 19 32 21t89 2q80 0 107.5 -7t56.5 -36
q53 -53 57.5 -124t-42.5 -117q-29 -29 -60 -38.5t-107 -13.5l-84 -4v-85z" />
    <glyph glyph-name="Q" unicode="Q" horiz-adv-x="527" 
d="M80 369q0 -101 60 -180q71 -92 134 -82l-18 20q-30 28 2 37q38 10 56 -35q7 -18 11 -21t18 -1q25 4 46 17t29 27q21 42 25 60.5t4 77.5q0 17 -0.5 29t-0.5 21t-1.5 17t-2 12.5t-3.5 12l-4 10t-5.5 12t-6.5 14.5q-36 76 -108 124q-18 12 -25.5 13t-34.5 -7
q-44 -13 -89.5 -43.5t-66.5 -61.5q-13 -20 -16 -31.5t-3 -41.5zM358 6q13 0 15.5 -5t-4.5 -18q-12 -23 -35.5 -21t-41.5 28q-15 20 -19 39q-3 13 -9 18t-34 17q-56 24 -60 25q-7 0 -35 29t-45 54q-43 63 -55 145q-8 51 -4 78.5t24 62.5q23 39 82.5 84t104.5 55q59 15 83 1
q14 -8 51.5 -43.5t54.5 -55.5q32 -39 54 -118q12 -42 12 -101t-13 -93q-20 -56 -46.5 -83.5t-72.5 -40.5q-41 -12 -42 -23q-1 -10 11 -22t24 -12z" />
    <glyph glyph-name="R" unicode="R" horiz-adv-x="468" 
d="M230 549q-68 8 -93.5 8.5t-58.5 -8.5q-1 -103 3 -202q140 4 198 30q40 18 43.5 61.5t-32.5 84.5q-12 14 -21.5 18t-38.5 8zM416 72q-8 0 -26 22.5t-32 49.5q-43 81 -71 124q-20 32 -27 37.5t-21 3.5q-19 -4 -76 -9q-5 0 -14 -1q-49 -5 -57 -14q-9 -10 -8 -67v-5
q1 -11 1 -17q3 -86 -2 -102q-4 -13 -16 -18.5t-19 1.5q-9 28 -16 246t5 269q44 16 134 12.5t126 -22.5q33 -17 55 -58.5t19.5 -89.5t-37.5 -77l-27 -26q74 -132 99 -170q26 -43 31 -58.5t-6 -23.5q-11 -7 -15 -7z" />
    <glyph glyph-name="S" unicode="S" horiz-adv-x="443" 
d="M204 528q-27 0 -56 -25.5t-29 -48.5q1 -23 28.5 -36.5t136.5 -45.5q79 -23 111 -77t9 -126q-7 -23 -27 -48t-38 -33q-2 -1 -18.5 -9.5t-23 -11.5t-23 -9t-27 -7.5t-26.5 -2t-31 3.5q-112 26 -149 95q-23 45 4 51q12 3 17 -1.5t33 -40.5q10 -13 43 -30.5t65 -25.5
q49 -13 121 38q28 20 36 59.5t-9 73.5q-11 23 -37 37t-96 34q-72 21 -83 25q-28 8 -47 32.5t-19 51.5q0 35 37 77.5t74 50.5q56 11 119 -37q83 -61 55 -89q-10 -9 -17 -7.5t-24 16.5q-74 66 -109 66z" />
    <glyph glyph-name="T" unicode="T" horiz-adv-x="501" 
d="M434 594q30 0 36 -19q6 -16 -15 -24q-24 -9 -159 -19q-12 -1 -16.5 -4.5t-7.5 -13.5q-3 -15 4 -172q12 -230 6 -255q-4 -14 -19 -15h-3q-14 0 -19.5 30.5t-8.5 125.5q-5 185 -11 300q-79 2 -129 -9q-36 -9 -46 -3q-16 9 -15.5 25.5t16.5 21.5q25 7 179.5 19t207.5 12z
" />
    <glyph glyph-name="U" unicode="U" horiz-adv-x="453" 
d="M57 594q10 0 14.5 -4.5t10.5 -20.5q10 -26 5 -65q-5 -47 -4.5 -130t7.5 -134q5 -44 9.5 -57t17.5 -29q41 -48 116 -48q79 0 114 55q27 43 27 252q0 98 5 126t23 28q13 0 17 -25.5t4 -112.5q0 -217 -30 -279q-44 -87 -145 -93q-69 -4 -129 36q-27 18 -41 36.5t-26 53.5
q-14 39 -19 207q-5 175 1 188q7 16 23 16z" />
    <glyph glyph-name="V" unicode="V" horiz-adv-x="566" 
d="M501 583q5 8 22 1q14 -6 13 -19t-18 -47q-26 -54 -83 -175.5t-60 -127.5q-6 -11 -23 -64t-23 -63q-4 -11 -17 -14q-22 -5 -37 23q-15 29 -62 122.5t-86.5 169t-68.5 120.5q-20 31 -24.5 42.5t-3.5 30.5q2 17 16 7q8 -6 23 -21q25 -25 55.5 -77t91.5 -172q61 -121 82 -160
q14 32 46 106.5t49.5 113.5t47.5 97.5t60 106.5z" />
    <glyph glyph-name="W" unicode="W" horiz-adv-x="699" 
d="M303 548q2 12 10.5 24t19.5 11q8 0 11.5 -6.5t13.5 -33.5q9 -24 62 -177.5t69 -191.5q3 -3 6 0q12 26 31.5 80t41.5 121t30 89q9 26 24 81q3 13 18 24q10 7 13 6.5t9 -7.5q7 -10 7 -18q-6 -44 -59.5 -192t-61.5 -173q-32 -105 -49 -116q-10 -6 -14 -5.5t-12 9.5
q-11 11 -21 44q-8 28 -93 280q-20 59 -24 55q-10 -39 -31 -130t-28 -114q-44 -133 -45 -133q-5 -3 -18 2q-11 5 -20 23t-40 103q-83 227 -113 319q-10 28 -10.5 36t6.5 13q24 21 42 -27q21 -56 67 -175.5t64 -167.5l9 -19q50 162 85 366z" />
    <glyph glyph-name="X" unicode="X" horiz-adv-x="507" 
d="M312 166q2 2 -35.5 59.5t-36.5 58.5q0 18 -37 -32q-14 -18 -53 -62t-53 -66q-16 -24 -31.5 -35.5t-24.5 -6.5q-11 7 -11 23t11 28q8 9 42 52t53 62q9 8 29.5 38t30.5 37q12 0 0 28q-3 8 -7 15q-12 23 -45.5 68t-37.5 45q-3 0 -5 8t-4 8q-6 0 -29 34q-17 24 -19 30t6 11
q15 12 26 6.5t43 -42.5q35 -39 65.5 -79.5t35.5 -54.5q3 -8 14 -10t13 5q-1 2 100 106.5t106 99.5q10 0 16 -13q4 -9 2 -15t-13 -23q-17 -25 -40 -46q-54 -51 -102 -104t-48 -61q0 -20 58 -107t93 -119q-24 -28 -34 -29q-6 0 -33.5 28.5t-30.5 38.5q-4 11 -9 11t-5 5z" />
    <glyph glyph-name="Y" unicode="Y" horiz-adv-x="582" 
d="M552 568q0 -11 -17.5 -30t-74.5 -69q-40 -35 -66 -61t-37.5 -39t-46.5 -55q-4 -199 -7 -235q-7 -2 -22.5 0t-17.5 9q-5 21 -5 224q-8 15 -53.5 63t-100 102.5l-61.5 61.5q-11 12 -13 25.5t8 16.5q6 2 10 3t12 -3t13.5 -7t14 -10t13 -10.5t11 -9.5t7.5 -7q4 -1 32.5 -38
t33.5 -38q5 0 47 -42.5t42 -46.5q0 -18 65 47l13 13q97 99 161 148q17 13 22 14.5t10 -4.5q7 -12 7 -22z" />
    <glyph glyph-name="Z" unicode="Z" horiz-adv-x="507" 
d="M477 107q0 -8 -9 -17q-10 -10 -204 -12q-193 -4 -207 1q-20 4 -15 23.5t14.5 36t15.5 22.5q35 48 48 58q16 13 64 75.5t90 118.5t46 58q10 10 33.5 42t23.5 34q0 4 -134 0q-140 -5 -164.5 -4t-38.5 15q-16 16 -2 22q17 7 134 14q92 5 173.5 5t93.5 -6q34 -17 -12 -71
q-99 -115 -163 -203q-80 -111 -140 -172q-12 -12 1 -15q18 -4 164 -4q131 1 159.5 -2.5t28.5 -18.5z" />
    <glyph glyph-name="grave" unicode="`" horiz-adv-x="202" 
d="M150 461q3 0 12.5 -18.5t9.5 -25.5q0 -5 -8.5 -6t-20 2.5t-19.5 9.5q-20 16 -94 81q23 31 33 25q11 -6 45 -34t42 -34z" />
    <glyph glyph-name="a" unicode="a" horiz-adv-x="326" 
d="M246 179q0 4 1 13t1 13v10.5t-2 9t-5 5t-9 2t-14 -3.5q-5 -2 -25 -7t-30 -8q-36 -10 -58 -28.5t-24 -39.5q-1 -20 12 -27q31 -18 106 18q32 15 39 20.5t8 22.5zM158 356q-16 0 -35 -11t-23 -22q-6 -17 -23 -18.5t-21 15.5q-5 21 13 44.5t47 32.5q47 15 95 -3
q54 -20 71.5 -71t12.5 -171l-4 -84q-35 -17 -49 21q-2 7 -33 -8q-20 -15 -69 -16.5t-71 9.5q-24 11 -31.5 23.5t-7.5 41.5q1 37 17.5 59t61.5 45q46 23 71 27t39 16q10 9 11 13t-4 17q-6 16 -27 28t-41 12z" />
    <glyph glyph-name="b" unicode="b" horiz-adv-x="351" 
d="M212 301q-36 19 -71 5t-48 -53q-5 -13 -5 -52.5t5 -53.5q0 -12 45.5 -29t72.5 -7q35 12 55.5 52t7.5 71q-7 18 -25 37.5t-37 29.5zM35 566q4 10 14.5 11t21.5 -2q4 -211 10 -239q4 -4 35 11q44 21 92 11t75 -45q28 -36 33.5 -51t4.5 -54q0 -50 -13 -74q-13 -23 -36 -42.5
t-44 -25.5q-20 -5 -60.5 -2.5t-56.5 9.5q-13 7 -30 -5q-15 -11 -27 -6q-8 4 -10.5 14.5t-4.5 53.5q-4 54 -8 224t4 212z" />
    <glyph glyph-name="c" unicode="c" horiz-adv-x="348" 
d="M168 356q-13 0 -37 -15t-24 -23q0 -7 -5 -7t-18 -38q-9 -28 -9.5 -37.5t6.5 -31.5q14 -44 60 -75q23 -15 63 -15q28 0 37 3t26 18q23 21 37 21q9 0 11.5 -3t2.5 -14q0 -34 -52 -62q-25 -13 -70.5 -13t-69.5 13q-19 10 -42 33t-33 43q-19 35 -20.5 80.5t15.5 81.5
q12 25 38 51t45 32q45 14 89.5 -1.5t68.5 -53.5q9 -14 6 -32q-8 -36 -43 3q-14 17 -39 29.5t-43 12.5z" />
    <glyph glyph-name="d" unicode="d" horiz-adv-x="339" 
d="M167 106q12 0 48 18.5t41 27.5t0 83q-5 55 -7.5 66.5t-15.5 22.5q-18 15 -44 14q-44 -1 -73 -29q-35 -34 -38.5 -92t29.5 -85q11 -10 30 -18t30 -8zM283 589q16 0 19 -13.5t-3 -58.5q-7 -46 3 -244q8 -151 6.5 -181.5t-17.5 -30.5q-6 0 -15 8t-11 15q-3 6 -29 -7t-73 -13
q-32 0 -43 3t-31 16q-28 19 -28 27q0 7 -5 7q-21 17 -25 74.5t10 94.5q10 29 41 59t59 38q57 17 85 1q11 -6 14.5 0t3.5 31q0 30 6.5 84.5t11.5 71.5q5 18 21 18z" />
    <glyph glyph-name="e" unicode="e" horiz-adv-x="342" 
d="M95 293q0 -4 78 -4q54 0 66 1.5t12 8.5q-2 22 -38 37t-66 0q-14 -8 -33 -23.5t-19 -19.5zM175 117q14 0 43.5 11t49.5 25q17 9 24.5 2.5t8.5 -22.5q0 -15 -24 -31q-57 -35 -101 -35q-16 0 -45.5 10.5t-39.5 19.5q-4 4 -7.5 6.5t-5.5 4t-5 4.5t-6.5 7.5t-8.5 12.5
q-18 27 -25 66.5t0 72.5q9 40 28 63t60 44q44 22 82.5 13.5t66 -33.5t35.5 -56q11 -44 -4 -52.5t-111 -10.5l-103 -3q-10 -39 19 -83q9 -14 31 -25t38 -11z" />
    <glyph glyph-name="f" unicode="f" horiz-adv-x="282" 
d="M230 564q0 -3 11 -14q12 -12 11.5 -45t-13.5 -33q-6 0 -24 17.5t-18 22.5q0 4 -20 24t-43 24t-33 -11q-8 -13 -14.5 -49t-3.5 -51q3 -12 8.5 -14t35.5 -2q42 0 53 -10q8 -7 9 -11.5t-4 -13.5q-5 -12 -16 -16t-39 -4q-31 0 -36 -8q-9 -13 -4 -101q0 -5 1 -16
q7 -112 7 -129.5t-6 -25.5q-19 -23 -37 4q-14 23 -14 62q0 31 -4 121.5t-5.5 142.5t4.5 105q9 46 46.5 73.5t88.5 5.5q16 -7 37.5 -25t21.5 -23z" />
    <glyph glyph-name="g" unicode="g" horiz-adv-x="336" 
d="M80 238q0 -47 40 -74q48 -32 90 -20q29 8 38.5 27.5t9.5 68.5q0 46 -8 63t-35 28q-23 10 -36 10.5t-32 -7.5q-67 -25 -67 -96zM157 -56q19 0 49.5 14t35.5 26q9 21 12 112q-19 -10 -66 -10.5t-69 8.5q-21 8 -45 32t-33 45q-11 24 -11 64t10 63q14 32 34.5 55.5t33.5 24.5
q11 0 29 8q31 11 60.5 6t51.5 -21l11 15q8 12 21 14t20 -7q6 -8 5 -199q-1 -160 -7.5 -201t-32.5 -64q-34 -30 -82.5 -38.5t-78.5 10.5q-24 15 -33 44t4 49q6 9 11 6.5t24 -24.5q17 -20 25.5 -26t20.5 -6z" />
    <glyph glyph-name="h" unicode="h" horiz-adv-x="341" 
d="M95 400q10 0 10 4t25 17q47 23 93 3t62 -70q7 -25 16.5 -102t9.5 -111q0 -19 -2.5 -25t-11.5 -8q-21 -5 -28 8.5t-15 76.5q-9 76 -9 100q-2 56 -34 75q-15 9 -37.5 9t-29.5 -8q-8 -8 -13 -8q-6 0 -18.5 -18t-21.5 -40q-10 -23 -6 -105q3 -70 -1 -84t-27 -14
q-13 0 -16 3.5t-5 25.5q-1 8 -5 250q-2 221 6 229q15 15 30 -1q9 -11 13 -108q2 -36 3 -54.5t2.5 -29t3.5 -13t6 -2.5z" />
    <glyph glyph-name="i" unicode="i" horiz-adv-x="139" 
d="M63 417q20 0 24 -23t4 -141v-145h-50q1 23 0 97t-1 132.5t4 68.5q4 11 19 11zM49 556q26 15 47 -6.5t10 -50.5q-8 -22 -36 -21.5t-37 22.5q-6 14 -1 31.5t17 24.5z" />
    <glyph glyph-name="j" unicode="j" horiz-adv-x="273" 
d="M116 -17q20 0 30 16.5t14 57.5t3 121q-2 146 0 190t9 51q14 14 26.5 5t17.5 -37q5 -33 0.5 -194t-10.5 -189q-15 -66 -70 -73q-66 -9 -97 42q-12 23 -7 38t23 12.5t33 -24.5q11 -16 28 -16zM208 603q3 -4 11 -8t13.5 -6.5t9 -10.5t-3.5 -21q-19 -40 -44 -40q-18 1 -30 11
t-26 38q-3 6 6 14t32 22q16 9 21 9.5t11 -8.5z" />
    <glyph glyph-name="k" unicode="k" horiz-adv-x="371" 
d="M291 204q2 -8 25.5 -38.5t24.5 -46.5q0 -8 -8 -16q-4 -4 -10 -5.5t-11 -0.5t-5 4q0 5 -5 5q-13 7 -19 13t-13 18.5t-15 22.5q-19 23 -72 103l-26 37q-4 -2 -16 -13t-26.5 -25t-19.5 -18l3 -63q2 -43 1 -55.5t-9 -22.5q-21 -27 -39 -5q-7 9 -14 123t-7 226q0 106 3 132.5
t15 27.5q32 4 32 -18q0 -4 2 -108q5 -153 14 -153q10 5 34.5 23t52.5 40t34 26q49 37 63 11q8 -14 0 -26.5t-39 -34.5q-39 -28 -39 -34q0 -5 40 -62.5t44 -58.5q5 -2 5 -8z" />
    <glyph glyph-name="l" unicode="l" horiz-adv-x="126" 
d="M42 604q15 22 33 2q7 -8 9 -49.5t0 -187.5q0 -63 7 -144q5 -57 5 -71t-5 -25q-11 -17 -29 -10.5t-21 28.5q-1 12 -7 131q-5 106 -2.5 209.5t10.5 116.5z" />
    <glyph glyph-name="m" unicode="m" horiz-adv-x="484" 
d="M350 422q22 0 43.5 -9t24.5 -20q2 -10 7 -10q4 0 15 -31q12 -33 13 -141q2 -109 -2 -115q-5 -7 -20 -7q-17 0 -23 22.5t-7 102.5q-2 68 -4 85.5t-11 36.5t-15 23t-27 7q-12 1 -22.5 -2t-16 -7t-15 -12t-13.5 -11v-109q0 -85 -1.5 -98.5t-10.5 -17.5q-13 -5 -26 7
q-9 9 -11 22.5t-5 77.5q-4 102 -17 151h-38q-31 0 -44 -8t-24 -34q-9 -20 -12.5 -78t2.5 -94q5 -28 3 -37t-15 -14q-11 -5 -23.5 -1t-18.5 15q-5 9 -6 153t4 149q6 6 22 3.5t23 -10.5q7 -7 11.5 -7.5t20.5 5.5q25 10 62 12q28 1 37.5 -1t27.5 -15q16 -12 22.5 -13.5
t12.5 3.5q32 27 77 27zM151 468q9 11 11 -1q1 -10 -7 -11q-7 0 -8 4t4 8z" />
    <glyph glyph-name="n" unicode="n" horiz-adv-x="333" 
d="M259 392q0 -8 6 -10q13 -4 25 -75.5t13 -144.5q0 -36 -2 -46t-10 -17q-18 -17 -33 0q-15 16 -16 148q-1 70 -15.5 95t-53.5 25q-52 0 -76 -38q-9 -13 -10.5 -61t5.5 -105q5 -41 0 -54.5t-25 -12.5q-12 1 -18 5.5t-10 25t-5 51t-2 95.5l-2 144q39 15 53 -6q4 -7 8.5 -7
t20.5 6q28 9 65 11q41 2 62 -10q20 -13 20 -19z" />
    <glyph glyph-name="o" unicode="o" horiz-adv-x="393" 
d="M205 142q31 0 47.5 8.5t29.5 31.5q38 62 30 116.5t-63 77.5q-61 26 -111 -6q-31 -20 -42 -41.5t-12 -59.5q-1 -29 2 -38t20 -29q24 -28 44 -43q13 -11 22.5 -14t32.5 -3zM83 396q47 51 116.5 50t117.5 -49q27 -27 37 -54t9 -73q0 -38 -3.5 -51.5t-22.5 -49.5
q-27 -50 -49 -63t-79 -14q-55 -1 -77.5 10t-64.5 59q-25 29 -33 60t-1 76q5 33 15 52t35 47z" />
    <glyph glyph-name="p" unicode="p" horiz-adv-x="362" 
d="M171 142q30 0 39.5 3t28.5 18q26 21 32.5 35t5.5 48q-1 26 -4 37t-15 29q-18 27 -24 27t-10 7q-11 11 -37.5 16.5t-46.5 -2.5q-24 -12 -35 -37.5t-15 -79.5q-4 -63 11.5 -82t69.5 -19zM82 424q0 -5 7 -14q5 -7 8.5 -7t16.5 6q40 20 91 8q34 -8 58 -27t49 -57
q14 -22 17 -32.5t3 -43.5q0 -35 -9.5 -67.5t-22.5 -42.5q-7 -5 -7 -11q0 -8 -31.5 -25.5t-55.5 -22.5q-30 -6 -75 3q-41 9 -43 6q-2 -2 -4 -63q-2 -79 -3 -89.5t-10 -13.5q-14 -4 -41 4l4 192q5 287 21 296q4 3 10.5 4.5t11.5 0.5t5 -4z" />
    <glyph glyph-name="q" unicode="q" horiz-adv-x="441" 
d="M129 167q3 0 14 -11q14 -14 52.5 -15t57.5 12q7 5 8.5 19t2.5 65q1 75 -2 94t-20 30q-14 8 -41.5 12.5t-44.5 0.5q-13 -2 -32 -20.5t-30 -40.5t-11.5 -54t10.5 -50q8 -15 20 -28.5t16 -13.5zM304 444q18 0 21 -19t-3 -99q-6 -104 -8 -222q-2 -114 4 -127q14 -10 35 -10
q20 0 39 -9.5t19 -18.5q0 -17 -13 -22.5t-45 -2.5q-43 3 -53 -3q-12 -7 -26 1q-10 5 -11.5 17t-1.5 78v89q-65 -19 -105 -5q-30 10 -59.5 32.5t-30.5 36.5q0 7 -4 7t-18 27q-19 39 -11.5 89.5t29.5 72.5q4 0 4 7t21.5 27t39.5 29q19 10 57.5 10.5t56.5 -9.5t26.5 -8t13.5 16
q6 16 23 16z" />
    <glyph glyph-name="r" unicode="r" horiz-adv-x="287" 
d="M75 411q4 -11 8 -14t7 -1.5t12 7t19 8.5q47 29 92 5.5t44 -67.5q0 -24 -11 -33q-15 -12 -22 12q0 5 -21 24q-32 32 -63 10q-31 -21 -41 -55q-18 -64 -5 -134q7 -37 6.5 -45.5t-7.5 -16.5q-13 -13 -26 -9.5t-19 21.5q-12 36 -17 157t5 137q8 13 20.5 11t18.5 -17z" />
    <glyph glyph-name="s" unicode="s" horiz-adv-x="332" 
d="M244 78q-3 0 -11 -8q-14 -14 -67 -13t-77 15q-34 21 -51 58.5t1 52.5q11 8 22 2t19 -22q13 -28 29 -40t52 -12q28 0 36 2.5t20 15.5q35 37 24 76q-6 19 -17.5 28t-47.5 25q-78 33 -95.5 72.5t27.5 81.5q12 10 35 21q22 10 30 10t40 -10q31 -10 45 -26q11 -14 11 -31
t-11 -29l-13 -13l-21 22q-22 22 -36.5 27t-32.5 -4q-67 -31 58 -74q39 -14 70.5 -64t9.5 -100q-7 -16 -25 -39.5t-24 -23.5z" />
    <glyph glyph-name="t" unicode="t" horiz-adv-x="287" 
d="M214 428q18 1 33.5 -10.5t2.5 -27.5q-11 -15 -36 -16h-20t-16 -1q-7 -1 -8.5 -20.5t-1.5 -105.5q0 -92 -1.5 -110t-10.5 -26q-20 -18 -33 -2q-5 1 -7.5 52.5t-3.5 121.5t-2 86l-78 6q-4 16 -2 27.5t18 16.5q33 9 41 9q16 0 20 3t6 18q3 17 3 81q0 41 2 53t10 21
q10 11 14.5 11.5t14.5 -7.5q7 -5 9 -20.5t1 -69.5q-1 -70 4 -80t41 -10z" />
    <glyph glyph-name="u" unicode="u" horiz-adv-x="330" 
d="M265 428q16 0 26 -24q7 -15 8.5 -36.5t-0.5 -87.5q-1 -101 -8 -109q-5 -6 -9.5 -21.5t-15.5 -23.5q-28 -19 -46 -25.5t-49 -6.5q-41 0 -72 16q-34 17 -46.5 40t-18.5 79q-5 46 -3.5 103.5t8.5 77.5q4 11 17 12t20 -10q5 -4 10 -110t9 -111q4 -13 25 -27.5t38 -17.5
q56 -9 77.5 45.5t9.5 169.5q-6 30 -3 48.5t23 18.5z" />
    <glyph glyph-name="v" unicode="v" horiz-adv-x="381" 
d="M184 195q0 -6 8 -6q2 -2 18 26q14 24 52 98q55 105 59 106q9 4 20 -2q16 -9 7 -41.5t-46 -103.5q-49 -95 -88 -162q-3 -10 -18.5 -10t-22.5 10q-19 29 -38 67.5t-45 97t-34 75.5q-23 49 -25 55.5t7 13.5q19 14 34 0t44 -75q68 -142 68 -149z" />
    <glyph glyph-name="w" unicode="w" horiz-adv-x="552" 
d="M455 347q1 7 8.5 20.5t8.5 20.5q0 11 11 20t24 9q12 0 14 -3.5t-1 -22.5q-9 -51 -38.5 -128.5t-35.5 -98.5q-13 -42 -24 -54.5t-35 -10.5q-7 1 -18.5 22.5t-44.5 100.5q-1 2 -14 32t-16 43q0 8 -4 8q-6 1 -10 -12q-11 -34 -45 -111q-8 -16 -8 -23q0 -10 -12 -32t-19 -24
q-10 -4 -25 7.5t-24 30.5q-2 4 -22 46t-38.5 82t-20.5 49q0 4 -14 32q-20 39 -21.5 52t12.5 16q18 4 30 -7t28 -44q9 -18 37.5 -80.5t43.5 -88.5q3 -1 7.5 6.5t10.5 21.5t12 31t12.5 36.5t12 37t11.5 33.5t9 25q6 16 12 20.5t18 6.5q12 1 16.5 -2.5t12.5 -22.5
q13 -30 37 -96.5t32 -87.5q7 -18 9 -18q3 0 12.5 24t9.5 32q2 8 9 20.5t11 28.5q4 15 10.5 28t8.5 25z" />
    <glyph glyph-name="x" unicode="x" horiz-adv-x="329" 
d="M139 358q3 -7 8.5 -11.5t6.5 -9.5q0 -10 8 -12t16.5 2t9.5 10q0 7 4 7q5 0 22 24q33 46 53 51q11 3 21.5 -4t10.5 -17q0 -14 -47.5 -67.5t-53.5 -63.5q31 -64 53 -88q36 -40 29 -66q-2 -8 -6.5 -10.5t-16.5 -2.5q-19 0 -19 8q0 9 -5 9q-2 -1 -15.5 17t-26.5 36t-15 18
q-4 2 -6 10.5t-5 10.5q-12 9 -29 -26q-6 -12 -34 -50q-45 -65 -65 -45q-11 12 -2.5 33t44.5 75l48 72q-64 116 -73 130q-15 8 10 19q11 6 17 5q8 1 29 -22t29 -42z" />
    <glyph glyph-name="y" unicode="y" horiz-adv-x="386" 
d="M135 304q0 -6 8 -15.5t8 -16.5q0 -8 9 -18.5t10 -17.5q2 -9 8 -13t7 -9q0 -24 20 13q4 7 8 16q68 142 96 180q13 18 20 20.5t19 -6.5q17 -13 -5 -51q-53 -97 -179 -375q-29 -65 -41 -78.5t-30 -1.5q-17 10 -12 29t48 107q25 52 25 72q0 23 -8.5 40.5t-23.5 38.5t-23 41
q-13 30 -45 80q-24 37 -23.5 53.5t19.5 35.5l18 -22.5t20.5 -26t17 -23t17.5 -27t12 -25.5z" />
    <glyph glyph-name="z" unicode="z" horiz-adv-x="349" 
d="M146 263q0 5 8.5 11.5t8.5 11.5q0 8 5 10q4 1 27 30t23 32q-2 2 -43.5 4t-82.5 5.5t-41 6.5q-10 7 -10 24q0 12 3.5 15.5t17.5 4.5q25 3 105.5 0t96.5 -8q33 -10 24 -38q-3 -10 -33.5 -53.5t-50.5 -65.5q-4 -4 -17.5 -23t-19.5 -24q-4 0 -4 -5q1 -4 -13.5 -21t-14.5 -20
q0 -5 81 -3q58 1 71 -0.5t21 -11.5q20 -25 2 -32q-21 -9 -148 -11h-132q7 20 26.5 52t27.5 35q2 0 15.5 17t26.5 34t15 16q5 0 5 7z" />
    <glyph glyph-name="uni0093" horiz-adv-x="270" 
d="M191 553q13 11 26.5 11.5t20.5 -10.5q5 -3 1 -15.5t-8.5 -22.5t-11 -21.5t-6.5 -12.5q-10 -23 9 -39q14 -11 14.5 -30t-13.5 -20q-34 -3 -50 11q-9 8 -15 37.5t-1 40.5q3 6 9 22.5t12 29.5t13 19zM39 421q-24 59 15 113q4 6 6.5 11t5 8t10.5 9q13 11 25 10t17 -13
q6 -13 -6 -32q-17 -25 -33 -65l15 -20q19 -25 9 -41t-40 -9q-9 2 -13.5 7.5t-10.5 21.5z" />
    <glyph glyph-name="uni0094" horiz-adv-x="609" 
d="M51 56q0 -12 -8 -12q-7 0 -11 5.5t-1 11.5q5 8 12.5 6t7.5 -11zM573 556q-3 -1 -4 3q-3 6 2 6q1 0 2 -1q13 -8 0 -8zM133 557q16 17 33.5 5t23.5 -43q5 -25 2 -62t-12 -56q-13 -28 -33 -21.5t-15 37.5q15 87 0 99q-9 7 -8.5 19t9.5 22zM226 564q16 12 32.5 4t24.5 -33
q7 -20 1.5 -78.5t-15.5 -65.5q-11 -9 -23.5 -7t-20.5 13q-6 11 -5.5 16.5t9.5 29.5l12 34l-12 39q-10 30 -10.5 35.5t7.5 12.5z" />
    </font>
</defs>
</svg>
